<svg width="142" height="169" viewBox="0 0 142 169" fill="none" xmlns="http://www.w3.org/2000/svg">
<mask id="mask0_34_45" style="mask-type:alpha" maskUnits="userSpaceOnUse" x="2" y="34" width="135" height="116">
<mask id="path-1-outside-1_34_45" maskUnits="userSpaceOnUse" x="2" y="34" width="135" height="116" fill="black">
<rect fill="white" x="2" y="34" width="135" height="116"/>
<path d="M51.1695 147.5C42.1695 147.5 34.1195 145.15 27.0195 140.45C20.0195 135.65 14.5195 129.05 10.5195 120.65C6.51953 112.15 4.51953 102.45 4.51953 91.55C4.51953 80.65 6.51953 71.1 10.5195 62.9C14.5195 54.6 20.0195 48.15 27.0195 43.55C34.1195 38.85 42.1695 36.5 51.1695 36.5C60.2695 36.5 68.3195 38.85 75.3195 43.55C82.3195 48.15 87.8195 54.6 91.8195 62.9C95.8195 71.1 97.8195 80.65 97.8195 91.55C97.8195 102.55 95.8195 112.25 91.8195 120.65C87.8195 129.05 82.2695 135.65 75.1695 140.45C68.1695 145.15 60.1695 147.5 51.1695 147.5ZM51.1695 128.3C56.2695 128.3 60.4695 126.6 63.7695 123.2C67.0695 119.8 69.5195 115.3 71.1195 109.7C72.7195 104.1 73.5195 98 73.5195 91.4C73.5195 84.8 72.7195 78.8 71.1195 73.4C69.5195 68 67.0695 63.7 63.7695 60.5C60.4695 57.3 56.2695 55.7 51.1695 55.7C46.0695 55.7 41.8695 57.35 38.5695 60.65C35.2695 63.85 32.8195 68.15 31.2195 73.55C29.6195 78.95 28.8195 84.9 28.8195 91.4C28.8195 98.1 29.6195 104.25 31.2195 109.85C32.8195 115.45 35.2695 119.95 38.5695 123.35C41.9695 126.65 46.1695 128.3 51.1695 128.3ZM112.016 146V57.8L114.566 60.05C113.066 63.15 110.916 66.05 108.116 68.75C105.316 71.35 102.016 73.6 98.2156 75.5C94.5156 77.3 90.3656 78.65 85.7656 79.55V57.05C89.4656 56.55 93.3156 55.35 97.3156 53.45C101.316 51.45 104.916 49.1 108.116 46.4C111.416 43.6 113.766 40.8 115.166 38H134.516V146H112.016Z"/>
</mask>
<path d="M51.1695 147.5C42.1695 147.5 34.1195 145.15 27.0195 140.45C20.0195 135.65 14.5195 129.05 10.5195 120.65C6.51953 112.15 4.51953 102.45 4.51953 91.55C4.51953 80.65 6.51953 71.1 10.5195 62.9C14.5195 54.6 20.0195 48.15 27.0195 43.55C34.1195 38.85 42.1695 36.5 51.1695 36.5C60.2695 36.5 68.3195 38.85 75.3195 43.55C82.3195 48.15 87.8195 54.6 91.8195 62.9C95.8195 71.1 97.8195 80.65 97.8195 91.55C97.8195 102.55 95.8195 112.25 91.8195 120.65C87.8195 129.05 82.2695 135.65 75.1695 140.45C68.1695 145.15 60.1695 147.5 51.1695 147.5ZM51.1695 128.3C56.2695 128.3 60.4695 126.6 63.7695 123.2C67.0695 119.8 69.5195 115.3 71.1195 109.7C72.7195 104.1 73.5195 98 73.5195 91.4C73.5195 84.8 72.7195 78.8 71.1195 73.4C69.5195 68 67.0695 63.7 63.7695 60.5C60.4695 57.3 56.2695 55.7 51.1695 55.7C46.0695 55.7 41.8695 57.35 38.5695 60.65C35.2695 63.85 32.8195 68.15 31.2195 73.55C29.6195 78.95 28.8195 84.9 28.8195 91.4C28.8195 98.1 29.6195 104.25 31.2195 109.85C32.8195 115.45 35.2695 119.95 38.5695 123.35C41.9695 126.65 46.1695 128.3 51.1695 128.3ZM112.016 146V57.8L114.566 60.05C113.066 63.15 110.916 66.05 108.116 68.75C105.316 71.35 102.016 73.6 98.2156 75.5C94.5156 77.3 90.3656 78.65 85.7656 79.55V57.05C89.4656 56.55 93.3156 55.35 97.3156 53.45C101.316 51.45 104.916 49.1 108.116 46.4C111.416 43.6 113.766 40.8 115.166 38H134.516V146H112.016Z" fill="url(#paint0_linear_34_45)"/>
<path d="M27.0195 140.45L25.8885 142.099L25.9019 142.109L25.9156 142.118L27.0195 140.45ZM10.5195 120.65L8.70988 121.502L8.71381 121.51L10.5195 120.65ZM10.5195 62.9L12.3171 63.7769L12.3212 63.7683L10.5195 62.9ZM27.0195 43.55L28.1179 45.2214L28.1235 45.2177L27.0195 43.55ZM75.3195 43.55L74.2047 45.2104L74.2129 45.216L74.2212 45.2214L75.3195 43.55ZM91.8195 62.9L90.0178 63.7683L90.022 63.7768L91.8195 62.9ZM91.8195 120.65L93.6253 121.51L91.8195 120.65ZM75.1695 140.45L76.2844 142.11L76.2897 142.107L75.1695 140.45ZM63.7695 123.2L62.3344 121.807H62.3344L63.7695 123.2ZM71.1195 109.7L73.0426 110.249L71.1195 109.7ZM71.1195 73.4L73.0371 72.8318L71.1195 73.4ZM63.7695 60.5L62.3772 61.9358L62.3772 61.9358L63.7695 60.5ZM38.5695 60.65L39.9618 62.0858L39.9729 62.0751L39.9837 62.0642L38.5695 60.65ZM38.5695 123.35L37.1344 124.743L37.1552 124.764L37.1766 124.785L38.5695 123.35ZM51.1695 147.5V145.5C42.5386 145.5 34.877 143.253 28.1235 138.782L27.0195 140.45L25.9156 142.118C33.3621 147.047 41.8004 149.5 51.1695 149.5V147.5ZM27.0195 140.45L28.1506 138.801C21.4685 134.219 16.1888 127.904 12.3253 119.79L10.5195 120.65L8.71381 121.51C12.8503 130.196 18.5705 137.081 25.8885 142.099L27.0195 140.45ZM10.5195 120.65L12.3292 119.798C8.47311 111.604 6.51953 102.203 6.51953 91.55H4.51953H2.51953C2.51953 102.697 4.56595 112.696 8.70989 121.502L10.5195 120.65ZM4.51953 91.55H6.51953C6.51953 80.8953 8.47377 71.6556 12.3171 63.7768L10.5195 62.9L8.72199 62.0232C4.56529 70.5444 2.51953 80.4047 2.51953 91.55H4.51953ZM10.5195 62.9L12.3212 63.7683C16.1801 55.7611 21.4505 49.6028 28.1179 45.2214L27.0195 43.55L25.9212 41.8786C18.5885 46.6972 12.859 53.4389 8.71784 62.0317L10.5195 62.9ZM27.0195 43.55L28.1235 45.2177C34.877 40.7471 42.5386 38.5 51.1695 38.5V36.5V34.5C41.8004 34.5 33.3621 36.9529 25.9156 41.8823L27.0195 43.55ZM51.1695 36.5V38.5C59.9054 38.5 67.5607 40.7495 74.2047 45.2104L75.3195 43.55L76.4344 41.8896C69.0784 36.9505 60.6336 34.5 51.1695 34.5V36.5ZM75.3195 43.55L74.2212 45.2214C80.8885 49.6028 86.159 55.7611 90.0179 63.7683L91.8195 62.9L93.6212 62.0317C89.4801 53.4389 83.7505 46.6972 76.4179 41.8786L75.3195 43.55ZM91.8195 62.9L90.022 63.7768C93.8653 71.6556 95.8195 80.8953 95.8195 91.55H97.8195H99.8195C99.8195 80.4047 97.7738 70.5444 93.6171 62.0232L91.8195 62.9ZM97.8195 91.55H95.8195C95.8195 102.306 93.8646 111.703 90.0138 119.79L91.8195 120.65L93.6253 121.51C97.7744 112.797 99.8195 102.794 99.8195 91.55H97.8195ZM91.8195 120.65L90.0138 119.79C86.1536 127.897 80.8288 134.21 74.0494 138.793L75.1695 140.45L76.2897 142.107C83.7103 137.09 89.4855 130.203 93.6253 121.51L91.8195 120.65ZM75.1695 140.45L74.0547 138.79C67.407 143.253 59.8006 145.5 51.1695 145.5V147.5V149.5C60.5385 149.5 68.9321 147.047 76.2844 142.11L75.1695 140.45ZM51.1695 128.3V130.3C56.7645 130.3 61.4973 128.413 65.2047 124.593L63.7695 123.2L62.3344 121.807C59.4418 124.787 55.7746 126.3 51.1695 126.3V128.3ZM63.7695 123.2L65.2047 124.593C68.7813 120.908 71.3725 116.095 73.0426 110.249L71.1195 109.7L69.1965 109.151C67.6666 114.505 65.3578 118.692 62.3344 121.807L63.7695 123.2ZM71.1195 109.7L73.0426 110.249C74.6999 104.449 75.5195 98.1615 75.5195 91.4H73.5195H71.5195C71.5195 97.8385 70.7392 103.751 69.1965 109.151L71.1195 109.7ZM73.5195 91.4H75.5195C75.5195 84.6398 74.7002 78.4447 73.0371 72.8318L71.1195 73.4L69.2019 73.9682C70.7389 79.1553 71.5195 84.9602 71.5195 91.4H73.5195ZM71.1195 73.4L73.0371 72.8318C71.3613 67.1759 68.7584 62.5518 65.1618 59.0642L63.7695 60.5L62.3772 61.9358C65.3807 64.8482 67.6778 68.8241 69.2019 73.9682L71.1195 73.4ZM63.7695 60.5L65.1618 59.0642C61.4464 55.4613 56.7272 53.7 51.1695 53.7V55.7V57.7C55.8118 57.7 59.4927 59.1387 62.3772 61.9358L63.7695 60.5ZM51.1695 55.7V53.7C45.5933 53.7 40.867 55.5241 37.1553 59.2358L38.5695 60.65L39.9837 62.0642C42.872 59.1759 46.5458 57.7 51.1695 57.7V55.7ZM38.5695 60.65L37.1772 59.2142C33.5807 62.7018 30.9778 67.3259 29.3019 72.9818L31.2195 73.55L33.1371 74.1182C34.6613 68.9741 36.9584 64.9982 39.9618 62.0858L38.5695 60.65ZM31.2195 73.55L29.3019 72.9818C27.6396 78.5921 26.8195 84.7366 26.8195 91.4H28.8195H30.8195C30.8195 85.0634 31.5994 79.3079 33.1371 74.1182L31.2195 73.55ZM28.8195 91.4H26.8195C26.8195 98.2585 27.6384 104.596 29.2965 110.399L31.2195 109.85L33.1426 109.301C31.6006 103.904 30.8195 97.9415 30.8195 91.4H28.8195ZM31.2195 109.85L29.2965 110.399C30.9666 116.245 33.5578 121.058 37.1344 124.743L38.5695 123.35L40.0047 121.957C36.9813 118.842 34.6725 114.655 33.1426 109.301L31.2195 109.85ZM38.5695 123.35L37.1766 124.785C40.972 128.469 45.6812 130.3 51.1695 130.3V128.3V126.3C46.6578 126.3 42.9671 124.831 39.9625 121.915L38.5695 123.35ZM112.016 146H110.016V148H112.016V146ZM112.016 57.8L113.339 56.3003L110.016 53.3681V57.8H112.016ZM114.566 60.05L116.366 60.9211L117.027 59.5547L115.889 58.5503L114.566 60.05ZM108.116 68.75L109.477 70.2156L109.49 70.2028L109.504 70.1897L108.116 68.75ZM98.2156 75.5L99.0906 77.2985L99.1003 77.2937L99.1101 77.2888L98.2156 75.5ZM85.7656 79.55H83.7656V81.9792L86.1497 81.5128L85.7656 79.55ZM85.7656 57.05L85.4978 55.068L83.7656 55.3021V57.05H85.7656ZM97.3156 53.45L98.1737 55.2565L98.192 55.2479L98.2101 55.2388L97.3156 53.45ZM108.116 46.4L109.405 47.9286L109.41 47.925L108.116 46.4ZM115.166 38V36H113.93L113.377 37.1056L115.166 38ZM134.516 38H136.516V36H134.516V38ZM134.516 146V148H136.516V146H134.516ZM112.016 146H114.016V57.8H112.016H110.016V146H112.016ZM112.016 57.8L110.692 59.2997L113.242 61.5497L114.566 60.05L115.889 58.5503L113.339 56.3003L112.016 57.8ZM114.566 60.05L112.765 59.1789C111.38 62.0409 109.379 64.753 106.727 67.3103L108.116 68.75L109.504 70.1897C112.452 67.3469 114.751 64.2591 116.366 60.9211L114.566 60.05ZM108.116 68.75L106.755 67.2844C104.109 69.7415 100.97 71.8868 97.3212 73.7111L98.2156 75.5L99.1101 77.2888C103.061 75.3132 106.523 72.9585 109.477 70.2156L108.116 68.75ZM98.2156 75.5L97.3407 73.7015C93.8164 75.4161 89.8347 76.716 85.3816 77.5872L85.7656 79.55L86.1497 81.5128C90.8966 80.584 95.2149 79.1839 99.0906 77.2985L98.2156 75.5ZM85.7656 79.55H87.7656V57.05H85.7656H83.7656V79.55H85.7656ZM85.7656 57.05L86.0335 59.032C89.9721 58.4997 94.0209 57.2291 98.1737 55.2565L97.3156 53.45L96.4575 51.6434C92.6103 53.4708 88.9592 54.6003 85.4978 55.068L85.7656 57.05ZM97.3156 53.45L98.2101 55.2388C102.342 53.1728 106.076 50.7374 109.405 47.9286L108.116 46.4L106.826 44.8714C103.755 47.4626 100.289 49.7272 96.4212 51.6611L97.3156 53.45ZM108.116 46.4L109.41 47.925C112.842 45.0128 115.397 42.0094 116.954 38.8944L115.166 38L113.377 37.1056C112.134 39.5906 109.989 42.1872 106.822 44.875L108.116 46.4ZM115.166 38V40H134.516V38V36H115.166V38ZM134.516 38H132.516V146H134.516H136.516V38H134.516ZM134.516 146V144H112.016V146V148H134.516V146Z" fill="#FF5B24" mask="url(#path-1-outside-1_34_45)"/>
</mask>
<g mask="url(#mask0_34_45)">
<rect x="-0.5" y="11.5" width="169" height="144" fill="url(#paint1_linear_34_45)" stroke="#FF5B24"/>
</g>
<defs>
<linearGradient id="paint0_linear_34_45" x1="-159.5" y1="81" x2="154.502" y2="81.8418" gradientUnits="userSpaceOnUse">
<stop stop-color="#FF5B24"/>
<stop offset="1" stop-color="#FF5B24" stop-opacity="0"/>
</linearGradient>
<linearGradient id="paint1_linear_34_45" x1="-191.951" y1="80.497" x2="183.964" y2="81.9032" gradientUnits="userSpaceOnUse">
<stop stop-color="#FF5B24"/>
<stop offset="1" stop-color="#FF5B24" stop-opacity="0"/>
</linearGradient>
</defs>
</svg>
