<svg width="171" height="169" viewBox="0 0 171 169" fill="none" xmlns="http://www.w3.org/2000/svg">
<mask id="mask0_34_51" style="mask-type:alpha" maskUnits="userSpaceOnUse" x="4" y="34" width="165" height="116">
<mask id="path-1-outside-1_34_51" maskUnits="userSpaceOnUse" x="4" y="34" width="165" height="116" fill="black">
<rect fill="white" x="4" y="34" width="165" height="116"/>
<path d="M52.7789 147.5C43.7789 147.5 35.7289 145.15 28.6289 140.45C21.6289 135.65 16.1289 129.05 12.1289 120.65C8.12891 112.15 6.12891 102.45 6.12891 91.55C6.12891 80.65 8.12891 71.1 12.1289 62.9C16.1289 54.6 21.6289 48.15 28.6289 43.55C35.7289 38.85 43.7789 36.5 52.7789 36.5C61.8789 36.5 69.9289 38.85 76.9289 43.55C83.9289 48.15 89.4289 54.6 93.4289 62.9C97.4289 71.1 99.4289 80.65 99.4289 91.55C99.4289 102.55 97.4289 112.25 93.4289 120.65C89.4289 129.05 83.8789 135.65 76.7789 140.45C69.7789 145.15 61.7789 147.5 52.7789 147.5ZM52.7789 128.3C57.8789 128.3 62.0789 126.6 65.3789 123.2C68.6789 119.8 71.1289 115.3 72.7289 109.7C74.3289 104.1 75.1289 98 75.1289 91.4C75.1289 84.8 74.3289 78.8 72.7289 73.4C71.1289 68 68.6789 63.7 65.3789 60.5C62.0789 57.3 57.8789 55.7 52.7789 55.7C47.6789 55.7 43.4789 57.35 40.1789 60.65C36.8789 63.85 34.4289 68.15 32.8289 73.55C31.2289 78.95 30.4289 84.9 30.4289 91.4C30.4289 98.1 31.2289 104.25 32.8289 109.85C34.4289 115.45 36.8789 119.95 40.1789 123.35C43.5789 126.65 47.7789 128.3 52.7789 128.3ZM88.5996 146V128C98.4996 119.9 106.75 112.95 113.35 107.15C120.05 101.25 125.35 96.05 129.25 91.55C133.25 87.05 136.1 82.95 137.8 79.25C139.5 75.55 140.35 71.85 140.35 68.15C140.35 63.75 139.15 60.35 136.75 57.95C134.45 55.45 131.2 54.2 127 54.2C122.6 54.2 118.95 55.55 116.05 58.25C113.15 60.95 111.35 64.65 110.65 69.35H87.5496C88.6496 59.15 92.7996 51.15 99.9996 45.35C107.2 39.45 116.5 36.5 127.9 36.5C139.5 36.5 148.55 39.5 155.05 45.5C161.55 51.4 164.8 59.65 164.8 70.25C164.8 75.25 163.95 80.05 162.25 84.65C160.65 89.25 157.95 94 154.15 98.9C150.35 103.8 145.15 109.2 138.55 115.1C132.05 120.9 123.9 127.55 114.1 135.05L108.55 128.3H166.9V146H88.5996Z"/>
</mask>
<path d="M52.7789 147.5C43.7789 147.5 35.7289 145.15 28.6289 140.45C21.6289 135.65 16.1289 129.05 12.1289 120.65C8.12891 112.15 6.12891 102.45 6.12891 91.55C6.12891 80.65 8.12891 71.1 12.1289 62.9C16.1289 54.6 21.6289 48.15 28.6289 43.55C35.7289 38.85 43.7789 36.5 52.7789 36.5C61.8789 36.5 69.9289 38.85 76.9289 43.55C83.9289 48.15 89.4289 54.6 93.4289 62.9C97.4289 71.1 99.4289 80.65 99.4289 91.55C99.4289 102.55 97.4289 112.25 93.4289 120.65C89.4289 129.05 83.8789 135.65 76.7789 140.45C69.7789 145.15 61.7789 147.5 52.7789 147.5ZM52.7789 128.3C57.8789 128.3 62.0789 126.6 65.3789 123.2C68.6789 119.8 71.1289 115.3 72.7289 109.7C74.3289 104.1 75.1289 98 75.1289 91.4C75.1289 84.8 74.3289 78.8 72.7289 73.4C71.1289 68 68.6789 63.7 65.3789 60.5C62.0789 57.3 57.8789 55.7 52.7789 55.7C47.6789 55.7 43.4789 57.35 40.1789 60.65C36.8789 63.85 34.4289 68.15 32.8289 73.55C31.2289 78.95 30.4289 84.9 30.4289 91.4C30.4289 98.1 31.2289 104.25 32.8289 109.85C34.4289 115.45 36.8789 119.95 40.1789 123.35C43.5789 126.65 47.7789 128.3 52.7789 128.3ZM88.5996 146V128C98.4996 119.9 106.75 112.95 113.35 107.15C120.05 101.25 125.35 96.05 129.25 91.55C133.25 87.05 136.1 82.95 137.8 79.25C139.5 75.55 140.35 71.85 140.35 68.15C140.35 63.75 139.15 60.35 136.75 57.95C134.45 55.45 131.2 54.2 127 54.2C122.6 54.2 118.95 55.55 116.05 58.25C113.15 60.95 111.35 64.65 110.65 69.35H87.5496C88.6496 59.15 92.7996 51.15 99.9996 45.35C107.2 39.45 116.5 36.5 127.9 36.5C139.5 36.5 148.55 39.5 155.05 45.5C161.55 51.4 164.8 59.65 164.8 70.25C164.8 75.25 163.95 80.05 162.25 84.65C160.65 89.25 157.95 94 154.15 98.9C150.35 103.8 145.15 109.2 138.55 115.1C132.05 120.9 123.9 127.55 114.1 135.05L108.55 128.3H166.9V146H88.5996Z" fill="url(#paint0_linear_34_51)"/>
<path d="M28.6289 140.45L27.4979 142.099L27.5113 142.109L27.5249 142.118L28.6289 140.45ZM12.1289 120.65L10.3192 121.502L10.3232 121.51L12.1289 120.65ZM12.1289 62.9L13.9265 63.7769L13.9306 63.7683L12.1289 62.9ZM28.6289 43.55L29.7273 45.2214L29.7329 45.2177L28.6289 43.55ZM76.9289 43.55L75.814 45.2104L75.8223 45.216L75.8306 45.2214L76.9289 43.55ZM93.4289 62.9L91.6272 63.7683L91.6314 63.7768L93.4289 62.9ZM93.4289 120.65L95.2346 121.51L95.2346 121.51L93.4289 120.65ZM76.7789 140.45L77.8938 142.11L77.8991 142.107L76.7789 140.45ZM65.3789 123.2L63.9437 121.807L63.9437 121.807L65.3789 123.2ZM72.7289 109.7L74.652 110.249L74.652 110.249L72.7289 109.7ZM72.7289 73.4L74.6465 72.8318L74.6465 72.8318L72.7289 73.4ZM65.3789 60.5L63.9866 61.9358L63.9866 61.9358L65.3789 60.5ZM40.1789 60.65L41.5712 62.0858L41.5822 62.0751L41.5931 62.0642L40.1789 60.65ZM40.1789 123.35L38.7437 124.743L38.7645 124.764L38.786 124.785L40.1789 123.35ZM52.7789 147.5V145.5C44.148 145.5 36.4864 143.253 29.7329 138.782L28.6289 140.45L27.5249 142.118C34.9714 147.047 43.4098 149.5 52.7789 149.5V147.5ZM28.6289 140.45L29.76 138.801C23.0779 134.219 17.7982 127.904 13.9346 119.79L12.1289 120.65L10.3232 121.51C14.4596 130.196 20.1799 137.081 27.4979 142.099L28.6289 140.45ZM12.1289 120.65L13.9385 119.798C10.0825 111.604 8.12891 102.203 8.12891 91.55H6.12891H4.12891C4.12891 102.697 6.17533 112.696 10.3193 121.502L12.1289 120.65ZM6.12891 91.55H8.12891C8.12891 80.8953 10.0831 71.6556 13.9264 63.7768L12.1289 62.9L10.3314 62.0231C6.17466 70.5444 4.12891 80.4047 4.12891 91.55H6.12891ZM12.1289 62.9L13.9306 63.7683C17.7895 55.7611 23.0599 49.6028 29.7273 45.2214L28.6289 43.55L27.5306 41.8786C20.1979 46.6972 14.4683 53.4389 10.3272 62.0317L12.1289 62.9ZM28.6289 43.55L29.7329 45.2177C36.4864 40.7471 44.148 38.5 52.7789 38.5V36.5V34.5C43.4098 34.5 34.9714 36.9529 27.5249 41.8823L28.6289 43.55ZM52.7789 36.5V38.5C61.5148 38.5 69.1701 40.7495 75.814 45.2104L76.9289 43.55L78.0438 41.8896C70.6877 36.9505 62.243 34.5 52.7789 34.5V36.5ZM76.9289 43.55L75.8306 45.2214C82.4979 49.6028 87.7684 55.7611 91.6272 63.7683L93.4289 62.9L95.2306 62.0317C91.0895 53.4389 85.3599 46.6972 78.0273 41.8786L76.9289 43.55ZM93.4289 62.9L91.6314 63.7768C95.4747 71.6556 97.4289 80.8953 97.4289 91.55H99.4289H101.429C101.429 80.4047 99.3832 70.5444 95.2265 62.0232L93.4289 62.9ZM99.4289 91.55H97.4289C97.4289 102.306 95.474 111.703 91.6232 119.79L93.4289 120.65L95.2346 121.51C99.3838 112.797 101.429 102.794 101.429 91.55H99.4289ZM93.4289 120.65L91.6232 119.79C87.763 127.897 82.4382 134.21 75.6588 138.793L76.7789 140.45L77.8991 142.107C85.3196 137.09 91.0948 130.203 95.2346 121.51L93.4289 120.65ZM76.7789 140.45L75.664 138.79C69.0163 143.253 61.41 145.5 52.7789 145.5V147.5V149.5C62.1479 149.5 70.5415 147.047 77.8938 142.11L76.7789 140.45ZM52.7789 128.3V130.3C58.3738 130.3 63.1066 128.413 66.8141 124.593L65.3789 123.2L63.9437 121.807C61.0512 124.787 57.384 126.3 52.7789 126.3V128.3ZM65.3789 123.2L66.8141 124.593C70.3907 120.908 72.9819 116.095 74.652 110.249L72.7289 109.7L70.8059 109.151C69.276 114.505 66.9672 118.692 63.9437 121.807L65.3789 123.2ZM72.7289 109.7L74.652 110.249C76.3093 104.449 77.1289 98.1615 77.1289 91.4H75.1289H73.1289C73.1289 97.8385 72.3485 103.751 70.8059 109.151L72.7289 109.7ZM75.1289 91.4H77.1289C77.1289 84.6398 76.3096 78.4447 74.6465 72.8318L72.7289 73.4L70.8113 73.9682C72.3482 79.1553 73.1289 84.9602 73.1289 91.4H75.1289ZM72.7289 73.4L74.6465 72.8318C72.9707 67.1759 70.3678 62.5518 66.7712 59.0642L65.3789 60.5L63.9866 61.9358C66.99 64.8482 69.2871 68.8241 70.8113 73.9682L72.7289 73.4ZM65.3789 60.5L66.7712 59.0642C63.0557 55.4613 58.3366 53.7 52.7789 53.7V55.7V57.7C57.4212 57.7 61.1021 59.1387 63.9866 61.9358L65.3789 60.5ZM52.7789 55.7V53.7C47.2027 53.7 42.4764 55.5241 38.7647 59.2358L40.1789 60.65L41.5931 62.0642C44.4814 59.1759 48.1552 57.7 52.7789 57.7V55.7ZM40.1789 60.65L38.7866 59.2142C35.19 62.7018 32.5871 67.3259 30.9113 72.9818L32.8289 73.55L34.7465 74.1182C36.2707 68.9741 38.5678 64.9982 41.5712 62.0858L40.1789 60.65ZM32.8289 73.55L30.9113 72.9818C29.249 78.5921 28.4289 84.7366 28.4289 91.4H30.4289H32.4289C32.4289 85.0634 33.2088 79.3079 34.7465 74.1182L32.8289 73.55ZM30.4289 91.4H28.4289C28.4289 98.2585 29.2478 104.596 30.9059 110.399L32.8289 109.85L34.752 109.301C33.21 103.904 32.4289 97.9415 32.4289 91.4H30.4289ZM32.8289 109.85L30.9059 110.399C32.576 116.245 35.1672 121.058 38.7437 124.743L40.1789 123.35L41.6141 121.957C38.5906 118.842 36.2819 114.655 34.752 109.301L32.8289 109.85ZM40.1789 123.35L38.786 124.785C42.5814 128.469 47.2906 130.3 52.7789 130.3V128.3V126.3C48.2672 126.3 44.5764 124.831 41.5719 121.915L40.1789 123.35ZM88.5996 146H86.5996V148H88.5996V146ZM88.5996 128L87.3331 126.452L86.5996 127.052V128H88.5996ZM113.35 107.15L114.67 108.652L114.671 108.651L113.35 107.15ZM129.25 91.55L127.755 90.2213L127.746 90.2307L127.738 90.2401L129.25 91.55ZM136.75 57.95L135.278 59.3041L135.306 59.3348L135.335 59.3642L136.75 57.95ZM116.05 58.25L114.687 56.7862L114.687 56.7862L116.05 58.25ZM110.65 69.35V71.35H112.374L112.628 69.6446L110.65 69.35ZM87.5496 69.35L85.5611 69.1356L85.3223 71.35H87.5496V69.35ZM99.9996 45.35L101.254 46.9075L101.261 46.9023L101.267 46.897L99.9996 45.35ZM155.05 45.5L153.693 46.9696L153.699 46.9753L153.705 46.9809L155.05 45.5ZM162.25 84.65L160.374 83.9567L160.367 83.9748L160.361 83.993L162.25 84.65ZM138.55 115.1L139.881 116.592L139.883 116.591L138.55 115.1ZM114.1 135.05L112.555 136.32L113.781 137.812L115.315 136.638L114.1 135.05ZM108.55 128.3V126.3H104.316L107.005 129.57L108.55 128.3ZM166.9 128.3H168.9V126.3H166.9V128.3ZM166.9 146V148H168.9V146H166.9ZM88.5996 146H90.5996V128H88.5996H86.5996V146H88.5996ZM88.5996 128L89.8661 129.548C99.7769 121.439 108.046 114.473 114.67 108.652L113.35 107.15L112.029 105.648C105.453 111.427 97.2223 118.361 87.3331 126.452L88.5996 128ZM113.35 107.15L114.671 108.651C121.409 102.718 126.781 97.4522 130.761 92.8599L129.25 91.55L127.738 90.2401C123.918 94.6477 118.69 99.7822 112.028 105.649L113.35 107.15ZM129.25 91.55L130.744 92.8787C134.819 88.2946 137.805 84.0283 139.617 80.085L137.8 79.25L135.982 78.415C134.394 81.8717 131.68 85.8054 127.755 90.2213L129.25 91.55ZM137.8 79.25L139.617 80.085C141.425 76.1497 142.35 72.1661 142.35 68.15H140.35H138.35C138.35 71.5339 137.574 74.9503 135.982 78.415L137.8 79.25ZM140.35 68.15H142.35C142.35 63.3836 141.041 59.4128 138.164 56.5358L136.75 57.95L135.335 59.3642C137.258 61.2872 138.35 64.1164 138.35 68.15H140.35ZM136.75 57.95L138.221 56.5959C135.456 53.5902 131.617 52.2 127 52.2V54.2V56.2C130.782 56.2 133.443 57.3098 135.278 59.3041L136.75 57.95ZM127 54.2V52.2C122.154 52.2 117.999 53.7024 114.687 56.7862L116.05 58.25L117.412 59.7138C119.9 57.3975 123.045 56.2 127 56.2V54.2ZM116.05 58.25L114.687 56.7862C111.393 59.8532 109.424 63.9998 108.671 69.0554L110.65 69.35L112.628 69.6446C113.275 65.3002 114.907 62.0468 117.412 59.7138L116.05 58.25ZM110.65 69.35V67.35H87.5496V69.35V71.35H110.65V69.35ZM87.5496 69.35L89.5381 69.5644C90.588 59.8284 94.5144 52.3369 101.254 46.9075L99.9996 45.35L98.745 43.7925C91.0848 49.9631 86.7112 58.4716 85.5611 69.1356L87.5496 69.35ZM99.9996 45.35L101.267 46.897C108.035 41.3514 116.855 38.5 127.9 38.5V36.5V34.5C116.145 34.5 106.364 37.5486 98.732 43.803L99.9996 45.35ZM127.9 36.5V38.5C139.158 38.5 147.666 41.4059 153.693 46.9696L155.05 45.5L156.406 44.0304C149.434 37.5941 139.842 34.5 127.9 34.5V36.5ZM155.05 45.5L153.705 46.9809C159.702 52.4241 162.8 60.087 162.8 70.25H164.8H166.8C166.8 59.213 163.397 50.3759 156.394 44.0191L155.05 45.5ZM164.8 70.25H162.8C162.8 75.0181 161.99 79.583 160.374 83.9567L162.25 84.65L164.126 85.3433C165.909 80.517 166.8 75.4819 166.8 70.25H164.8ZM162.25 84.65L160.361 83.993C158.848 88.3407 156.271 92.9013 152.569 97.6744L154.15 98.9L155.73 100.126C159.629 95.0987 162.451 90.1593 164.139 85.307L162.25 84.65ZM154.15 98.9L152.569 97.6744C148.867 102.448 143.761 107.759 137.217 113.609L138.55 115.1L139.883 116.591C146.538 110.641 151.832 105.152 155.73 100.126L154.15 98.9ZM138.55 115.1L137.218 113.608C130.767 119.364 122.659 125.981 112.884 133.462L114.1 135.05L115.315 136.638C125.14 129.119 133.332 122.436 139.881 116.592L138.55 115.1ZM114.1 135.05L115.644 133.78L110.094 127.03L108.55 128.3L107.005 129.57L112.555 136.32L114.1 135.05ZM108.55 128.3V130.3H166.9V128.3V126.3H108.55V128.3ZM166.9 128.3H164.9V146H166.9H168.9V128.3H166.9ZM166.9 146V144H88.5996V146V148H166.9V146Z" fill="#FF5B24" mask="url(#path-1-outside-1_34_51)"/>
</mask>
<g mask="url(#mask0_34_51)">
<path d="M188.5 11.5V155.5H-0.5V11.5H188.5Z" fill="url(#paint1_linear_34_51)" stroke="#FF5B24"/>
</g>
<defs>
<linearGradient id="paint0_linear_34_51" x1="-131.5" y1="75.5" x2="184.022" y2="78.5532" gradientUnits="userSpaceOnUse">
<stop stop-color="#FF5B24"/>
<stop offset="1" stop-color="#FF5B24" stop-opacity="0"/>
</linearGradient>
<linearGradient id="paint1_linear_34_51" x1="-147.111" y1="75.7781" x2="203.446" y2="80.1711" gradientUnits="userSpaceOnUse">
<stop stop-color="#FF5B24"/>
<stop offset="1" stop-color="#FF5B24" stop-opacity="0"/>
</linearGradient>
</defs>
</svg>
