<svg width="171" height="169" viewBox="0 0 171 169" fill="none" xmlns="http://www.w3.org/2000/svg">
<mask id="mask0_34_59" style="mask-type:alpha" maskUnits="userSpaceOnUse" x="2" y="34" width="168" height="116">
<mask id="path-1-outside-1_34_59" maskUnits="userSpaceOnUse" x="2" y="34" width="168" height="116" fill="black">
<rect fill="white" x="2" y="34" width="168" height="116"/>
<path d="M51.3141 147.5C42.3141 147.5 34.2641 145.15 27.1641 140.45C20.1641 135.65 14.6641 129.05 10.6641 120.65C6.66406 112.15 4.66406 102.45 4.66406 91.55C4.66406 80.65 6.66406 71.1 10.6641 62.9C14.6641 54.6 20.1641 48.15 27.1641 43.55C34.2641 38.85 42.3141 36.5 51.3141 36.5C60.4141 36.5 68.4641 38.85 75.4641 43.55C82.4641 48.15 87.9641 54.6 91.9641 62.9C95.9641 71.1 97.9641 80.65 97.9641 91.55C97.9641 102.55 95.9641 112.25 91.9641 120.65C87.9641 129.05 82.4141 135.65 75.3141 140.45C68.3141 145.15 60.3141 147.5 51.3141 147.5ZM51.3141 128.3C56.4141 128.3 60.6141 126.6 63.9141 123.2C67.2141 119.8 69.6641 115.3 71.2641 109.7C72.8641 104.1 73.6641 98 73.6641 91.4C73.6641 84.8 72.8641 78.8 71.2641 73.4C69.6641 68 67.2141 63.7 63.9141 60.5C60.6141 57.3 56.4141 55.7 51.3141 55.7C46.2141 55.7 42.0141 57.35 38.7141 60.65C35.4141 63.85 32.9641 68.15 31.3641 73.55C29.7641 78.95 28.9641 84.9 28.9641 91.4C28.9641 98.1 29.7641 104.25 31.3641 109.85C32.9641 115.45 35.4141 119.95 38.7141 123.35C42.1141 126.65 46.3141 128.3 51.3141 128.3ZM128.231 147.5C120.631 147.5 113.781 146.15 107.681 143.45C101.681 140.65 96.7813 136.6 92.9813 131.3C89.2813 125.9 87.1313 119.35 86.5313 111.65H109.481C110.281 117.85 112.181 122.45 115.181 125.45C118.181 128.35 122.231 129.8 127.331 129.8C131.731 129.8 135.381 128.5 138.281 125.9C141.281 123.3 142.781 119.5 142.781 114.5C142.781 109.7 141.331 105.85 138.431 102.95C135.631 99.95 130.831 98.45 124.031 98.45H114.431V81.05H123.581C129.481 81.05 133.731 79.75 136.331 77.15C138.931 74.55 140.231 71.25 140.231 67.25C140.231 63.45 139.231 60.35 137.231 57.95C135.231 55.45 131.831 54.2 127.031 54.2C122.931 54.2 119.381 55.45 116.381 57.95C113.381 60.45 111.531 64.25 110.831 69.35H87.7313C88.6313 62.55 90.7813 56.7 94.1813 51.8C97.5813 46.9 102.131 43.15 107.831 40.55C113.531 37.85 120.181 36.5 127.781 36.5C135.381 36.5 141.881 37.7 147.281 40.1C152.781 42.4 157.031 45.7 160.031 50C163.031 54.3 164.531 59.45 164.531 65.45C164.531 70.45 163.381 74.85 161.081 78.65C158.781 82.45 155.881 85.4 152.381 87.5C148.981 89.6 145.531 90.65 142.031 90.65L141.881 87.5C147.181 87.5 151.731 88.8 155.531 91.4C159.331 93.9 162.231 97.3 164.231 101.6C166.231 105.8 167.231 110.5 167.231 115.7C167.231 122.2 165.531 127.85 162.131 132.65C158.731 137.45 154.081 141.15 148.181 143.75C142.281 146.25 135.631 147.5 128.231 147.5Z"/>
</mask>
<path d="M51.3141 147.5C42.3141 147.5 34.2641 145.15 27.1641 140.45C20.1641 135.65 14.6641 129.05 10.6641 120.65C6.66406 112.15 4.66406 102.45 4.66406 91.55C4.66406 80.65 6.66406 71.1 10.6641 62.9C14.6641 54.6 20.1641 48.15 27.1641 43.55C34.2641 38.85 42.3141 36.5 51.3141 36.5C60.4141 36.5 68.4641 38.85 75.4641 43.55C82.4641 48.15 87.9641 54.6 91.9641 62.9C95.9641 71.1 97.9641 80.65 97.9641 91.55C97.9641 102.55 95.9641 112.25 91.9641 120.65C87.9641 129.05 82.4141 135.65 75.3141 140.45C68.3141 145.15 60.3141 147.5 51.3141 147.5ZM51.3141 128.3C56.4141 128.3 60.6141 126.6 63.9141 123.2C67.2141 119.8 69.6641 115.3 71.2641 109.7C72.8641 104.1 73.6641 98 73.6641 91.4C73.6641 84.8 72.8641 78.8 71.2641 73.4C69.6641 68 67.2141 63.7 63.9141 60.5C60.6141 57.3 56.4141 55.7 51.3141 55.7C46.2141 55.7 42.0141 57.35 38.7141 60.65C35.4141 63.85 32.9641 68.15 31.3641 73.55C29.7641 78.95 28.9641 84.9 28.9641 91.4C28.9641 98.1 29.7641 104.25 31.3641 109.85C32.9641 115.45 35.4141 119.95 38.7141 123.35C42.1141 126.65 46.3141 128.3 51.3141 128.3ZM128.231 147.5C120.631 147.5 113.781 146.15 107.681 143.45C101.681 140.65 96.7813 136.6 92.9813 131.3C89.2813 125.9 87.1313 119.35 86.5313 111.65H109.481C110.281 117.85 112.181 122.45 115.181 125.45C118.181 128.35 122.231 129.8 127.331 129.8C131.731 129.8 135.381 128.5 138.281 125.9C141.281 123.3 142.781 119.5 142.781 114.5C142.781 109.7 141.331 105.85 138.431 102.95C135.631 99.95 130.831 98.45 124.031 98.45H114.431V81.05H123.581C129.481 81.05 133.731 79.75 136.331 77.15C138.931 74.55 140.231 71.25 140.231 67.25C140.231 63.45 139.231 60.35 137.231 57.95C135.231 55.45 131.831 54.2 127.031 54.2C122.931 54.2 119.381 55.45 116.381 57.95C113.381 60.45 111.531 64.25 110.831 69.35H87.7313C88.6313 62.55 90.7813 56.7 94.1813 51.8C97.5813 46.9 102.131 43.15 107.831 40.55C113.531 37.85 120.181 36.5 127.781 36.5C135.381 36.5 141.881 37.7 147.281 40.1C152.781 42.4 157.031 45.7 160.031 50C163.031 54.3 164.531 59.45 164.531 65.45C164.531 70.45 163.381 74.85 161.081 78.65C158.781 82.45 155.881 85.4 152.381 87.5C148.981 89.6 145.531 90.65 142.031 90.65L141.881 87.5C147.181 87.5 151.731 88.8 155.531 91.4C159.331 93.9 162.231 97.3 164.231 101.6C166.231 105.8 167.231 110.5 167.231 115.7C167.231 122.2 165.531 127.85 162.131 132.65C158.731 137.45 154.081 141.15 148.181 143.75C142.281 146.25 135.631 147.5 128.231 147.5Z" fill="url(#paint0_linear_34_59)"/>
<path d="M27.1641 140.45L26.033 142.099L26.0465 142.109L26.0601 142.118L27.1641 140.45ZM10.6641 120.65L8.85441 121.502L8.85834 121.51L10.6641 120.65ZM10.6641 62.9L12.4616 63.7769L12.4658 63.7683L10.6641 62.9ZM27.1641 43.55L28.2624 45.2214L28.268 45.2177L27.1641 43.55ZM75.4641 43.55L74.3492 45.2104L74.3574 45.216L74.3657 45.2214L75.4641 43.55ZM91.9641 62.9L90.1624 63.7683L90.1665 63.7768L91.9641 62.9ZM91.9641 120.65L93.7698 121.51L91.9641 120.65ZM75.3141 140.45L76.4289 142.11L76.4342 142.107L75.3141 140.45ZM63.9141 123.2L62.4789 121.807H62.4789L63.9141 123.2ZM71.2641 109.7L73.1871 110.249L71.2641 109.7ZM71.2641 73.4L73.1817 72.8318L71.2641 73.4ZM63.9141 60.5L62.5218 61.9358L62.5218 61.9358L63.9141 60.5ZM38.7141 60.65L40.1064 62.0858L40.1174 62.0751L40.1283 62.0642L38.7141 60.65ZM38.7141 123.35L37.2789 124.743L37.2997 124.764L37.3211 124.785L38.7141 123.35ZM51.3141 147.5V145.5C42.6831 145.5 35.0215 143.253 28.268 138.782L27.1641 140.45L26.0601 142.118C33.5066 147.047 41.945 149.5 51.3141 149.5V147.5ZM27.1641 140.45L28.2951 138.801C21.6131 134.219 16.3333 127.904 12.4698 119.79L10.6641 120.65L8.85834 121.51C12.9948 130.196 18.7151 137.081 26.033 142.099L27.1641 140.45ZM10.6641 120.65L12.4737 119.798C8.61764 111.604 6.66406 102.203 6.66406 91.55H4.66406H2.66406C2.66406 102.697 4.71048 112.696 8.85443 121.502L10.6641 120.65ZM4.66406 91.55H6.66406C6.66406 80.8953 8.61831 71.6556 12.4616 63.7768L10.6641 62.9L8.86653 62.0232C4.70982 70.5444 2.66406 80.4047 2.66406 91.55H4.66406ZM10.6641 62.9L12.4658 63.7683C16.3246 55.7611 21.5951 49.6028 28.2624 45.2214L27.1641 43.55L26.0657 41.8786C18.7331 46.6972 13.0035 53.4389 8.86237 62.0317L10.6641 62.9ZM27.1641 43.55L28.268 45.2177C35.0215 40.7471 42.6831 38.5 51.3141 38.5V36.5V34.5C41.945 34.5 33.5066 36.9529 26.0601 41.8823L27.1641 43.55ZM51.3141 36.5V38.5C60.05 38.5 67.7052 40.7495 74.3492 45.2104L75.4641 43.55L76.5789 41.8896C69.2229 36.9505 60.7782 34.5 51.3141 34.5V36.5ZM75.4641 43.55L74.3657 45.2214C81.0331 49.6028 86.3035 55.7611 90.1624 63.7683L91.9641 62.9L93.7658 62.0317C89.6246 53.4389 83.8951 46.6972 76.5624 41.8786L75.4641 43.55ZM91.9641 62.9L90.1665 63.7768C94.0098 71.6556 95.9641 80.8953 95.9641 91.55H97.9641H99.9641C99.9641 80.4047 97.9183 70.5444 93.7616 62.0232L91.9641 62.9ZM97.9641 91.55H95.9641C95.9641 102.306 94.0092 111.703 90.1583 119.79L91.9641 120.65L93.7698 121.51C97.919 112.797 99.9641 102.794 99.9641 91.55H97.9641ZM91.9641 120.65L90.1583 119.79C86.2981 127.897 80.9733 134.21 74.1939 138.793L75.3141 140.45L76.4342 142.107C83.8548 137.09 89.63 130.203 93.7698 121.51L91.9641 120.65ZM75.3141 140.45L74.1992 138.79C67.5515 143.253 59.9451 145.5 51.3141 145.5V147.5V149.5C60.683 149.5 69.0767 147.047 76.4289 142.11L75.3141 140.45ZM51.3141 128.3V130.3C56.909 130.3 61.6418 128.413 65.3492 124.593L63.9141 123.2L62.4789 121.807C59.5863 124.787 55.9192 126.3 51.3141 126.3V128.3ZM63.9141 123.2L65.3492 124.593C68.9258 120.908 71.517 116.095 73.1871 110.249L71.2641 109.7L69.341 109.151C67.8111 114.505 65.5023 118.692 62.4789 121.807L63.9141 123.2ZM71.2641 109.7L73.1871 110.249C74.8444 104.449 75.6641 98.1615 75.6641 91.4H73.6641H71.6641C71.6641 97.8385 70.8837 103.751 69.341 109.151L71.2641 109.7ZM73.6641 91.4H75.6641C75.6641 84.6398 74.8447 78.4447 73.1817 72.8318L71.2641 73.4L69.3465 73.9682C70.8834 79.1553 71.6641 84.9602 71.6641 91.4H73.6641ZM71.2641 73.4L73.1817 72.8318C71.5058 67.1759 68.9029 62.5518 65.3064 59.0642L63.9141 60.5L62.5218 61.9358C65.5252 64.8482 67.8223 68.8241 69.3465 73.9682L71.2641 73.4ZM63.9141 60.5L65.3064 59.0642C61.5909 55.4613 56.8718 53.7 51.3141 53.7V55.7V57.7C55.9564 57.7 59.6372 59.1387 62.5218 61.9358L63.9141 60.5ZM51.3141 55.7V53.7C45.7378 53.7 41.0116 55.5241 37.2998 59.2358L38.7141 60.65L40.1283 62.0642C43.0166 59.1759 46.6903 57.7 51.3141 57.7V55.7ZM38.7141 60.65L37.3218 59.2142C33.7252 62.7018 31.1223 67.3259 29.4465 72.9818L31.3641 73.55L33.2817 74.1182C34.8058 68.9741 37.1029 64.9982 40.1064 62.0858L38.7141 60.65ZM31.3641 73.55L29.4465 72.9818C27.7842 78.5921 26.9641 84.7366 26.9641 91.4H28.9641H30.9641C30.9641 85.0634 31.744 79.3079 33.2817 74.1182L31.3641 73.55ZM28.9641 91.4H26.9641C26.9641 98.2585 27.783 104.596 29.441 110.399L31.3641 109.85L33.2871 109.301C31.7452 103.904 30.9641 97.9415 30.9641 91.4H28.9641ZM31.3641 109.85L29.441 110.399C31.1111 116.245 33.7023 121.058 37.2789 124.743L38.7141 123.35L40.1492 121.957C37.1258 118.842 34.817 114.655 33.2871 109.301L31.3641 109.85ZM38.7141 123.35L37.3211 124.785C41.1165 128.469 45.8258 130.3 51.3141 130.3V128.3V126.3C46.8024 126.3 43.1116 124.831 40.107 121.915L38.7141 123.35ZM107.681 143.45L106.835 145.262L106.854 145.271L106.872 145.279L107.681 143.45ZM92.9812 131.3L91.3314 132.43L91.3434 132.448L91.3559 132.465L92.9812 131.3ZM86.5312 111.65V109.65H84.3693L84.5373 111.805L86.5312 111.65ZM109.481 111.65L111.465 111.394L111.24 109.65H109.481V111.65ZM115.181 125.45L113.767 126.864L113.779 126.876L113.791 126.888L115.181 125.45ZM138.281 125.9L136.971 124.389L136.959 124.4L136.946 124.411L138.281 125.9ZM138.431 102.95L136.969 104.315L136.993 104.34L137.017 104.364L138.431 102.95ZM114.431 98.45H112.431V100.45H114.431V98.45ZM114.431 81.05V79.05H112.431V81.05H114.431ZM136.331 77.15L137.745 78.5642L136.331 77.15ZM137.231 57.95L135.67 59.1994L135.682 59.215L135.695 59.2304L137.231 57.95ZM116.381 57.95L117.662 59.4864V59.4864L116.381 57.95ZM110.831 69.35V71.35H112.575L112.813 69.622L110.831 69.35ZM87.7312 69.35L85.7485 69.0876L85.4491 71.35H87.7312V69.35ZM94.1813 51.8L95.8244 52.9402L94.1813 51.8ZM107.831 40.55L108.661 42.3696L108.674 42.3637L108.687 42.3575L107.831 40.55ZM147.281 40.1L146.469 41.9276L146.489 41.9366L146.51 41.9452L147.281 40.1ZM160.031 50L161.672 48.8556V48.8556L160.031 50ZM161.081 78.65L159.37 77.6144L161.081 78.65ZM152.381 87.5L151.352 85.785L151.341 85.7916L151.33 85.7984L152.381 87.5ZM142.031 90.65L140.034 90.7451L140.124 92.65H142.031V90.65ZM141.881 87.5V85.5H139.784L139.884 87.5951L141.881 87.5ZM155.531 91.4L154.402 93.0506L154.417 93.0609L154.432 93.0708L155.531 91.4ZM164.231 101.6L162.418 102.443L162.422 102.452L162.426 102.46L164.231 101.6ZM162.131 132.65L163.763 133.806L162.131 132.65ZM148.181 143.75L148.962 145.592L148.975 145.586L148.988 145.58L148.181 143.75ZM128.231 147.5V145.5C120.871 145.5 114.303 144.194 108.491 141.621L107.681 143.45L106.872 145.279C113.26 148.106 120.391 149.5 128.231 149.5V147.5ZM107.681 143.45L108.527 141.638C102.833 138.98 98.2034 135.151 94.6066 130.135L92.9812 131.3L91.3559 132.465C95.3591 138.049 100.529 142.32 106.835 145.262L107.681 143.45ZM92.9812 131.3L94.6311 130.17C91.1623 125.107 89.1029 118.908 88.5252 111.495L86.5312 111.65L84.5373 111.805C85.1596 119.792 87.4002 126.693 91.3314 132.43L92.9812 131.3ZM86.5312 111.65V113.65H109.481V111.65V109.65H86.5312V111.65ZM109.481 111.65L107.498 111.906C108.329 118.345 110.337 123.434 113.767 126.864L115.181 125.45L116.595 124.036C114.025 121.466 112.234 117.355 111.465 111.394L109.481 111.65ZM115.181 125.45L113.791 126.888C117.244 130.225 121.835 131.8 127.331 131.8V129.8V127.8C122.628 127.8 119.119 126.475 116.571 124.012L115.181 125.45ZM127.331 129.8V131.8C132.155 131.8 136.301 130.361 139.616 127.389L138.281 125.9L136.946 124.411C134.461 126.639 131.307 127.8 127.331 127.8V129.8ZM138.281 125.9L139.591 127.411C143.139 124.337 144.781 119.918 144.781 114.5H142.781H140.781C140.781 119.082 139.424 122.263 136.971 124.389L138.281 125.9ZM142.781 114.5H144.781C144.781 109.267 143.184 104.875 139.845 101.536L138.431 102.95L137.017 104.364C139.478 106.825 140.781 110.133 140.781 114.5H142.781ZM138.431 102.95L139.893 101.585C136.529 97.981 131.037 96.45 124.031 96.45V98.45V100.45C130.626 100.45 134.733 101.919 136.969 104.315L138.431 102.95ZM124.031 98.45V96.45H114.431V98.45V100.45H124.031V98.45ZM114.431 98.45H116.431V81.05H114.431H112.431V98.45H114.431ZM114.431 81.05V83.05H123.581V81.05V79.05H114.431V81.05ZM123.581 81.05V83.05C129.703 83.05 134.598 81.712 137.745 78.5642L136.331 77.15L134.917 75.7358C132.865 77.788 129.259 79.05 123.581 79.05V81.05ZM136.331 77.15L137.745 78.5642C140.755 75.5543 142.231 71.7291 142.231 67.25H140.231H138.231C138.231 70.7709 137.107 73.5457 134.917 75.7358L136.331 77.15ZM140.231 67.25H142.231C142.231 63.0872 141.128 59.5023 138.768 56.6696L137.231 57.95L135.695 59.2304C137.334 61.1977 138.231 63.8128 138.231 67.25H140.231ZM137.231 57.95L138.793 56.7006C136.254 53.5274 132.128 52.2 127.031 52.2V54.2V56.2C131.535 56.2 134.208 57.3726 135.67 59.1994L137.231 57.95ZM127.031 54.2V52.2C122.489 52.2 118.479 53.5982 115.101 56.4136L116.381 57.95L117.662 59.4864C120.283 57.3018 123.374 56.2 127.031 56.2V54.2ZM116.381 57.95L115.101 56.4136C111.609 59.3235 109.596 63.6448 108.85 69.078L110.831 69.35L112.813 69.622C113.467 64.8552 115.154 61.5765 117.662 59.4864L116.381 57.95ZM110.831 69.35V67.35H87.7312V69.35V71.35H110.831V69.35ZM87.7312 69.35L89.714 69.6124C90.5785 63.0803 92.6313 57.542 95.8244 52.9402L94.1813 51.8L92.5381 50.6598C88.9312 55.858 86.684 62.0197 85.7485 69.0876L87.7312 69.35ZM94.1813 51.8L95.8244 52.9402C99.0089 48.3508 103.271 44.8282 108.661 42.3696L107.831 40.55L107.001 38.7304C100.991 41.4718 96.1536 45.4492 92.5381 50.6598L94.1813 51.8ZM107.831 40.55L108.687 42.3575C114.071 39.8076 120.418 38.5 127.781 38.5V36.5V34.5C119.945 34.5 112.992 35.8924 106.975 38.7425L107.831 40.55ZM127.781 36.5V38.5C135.178 38.5 141.387 39.6688 146.469 41.9276L147.281 40.1L148.094 38.2724C142.376 35.7312 135.584 34.5 127.781 34.5V36.5ZM147.281 40.1L146.51 41.9452C151.709 44.1193 155.637 47.1967 158.391 51.1444L160.031 50L161.672 48.8556C158.426 44.2033 153.854 40.6807 148.053 38.2548L147.281 40.1ZM160.031 50L158.391 51.1444C161.124 55.0618 162.531 59.7981 162.531 65.45H164.531H166.531C166.531 59.1019 164.938 53.5382 161.672 48.8556L160.031 50ZM164.531 65.45H162.531C162.531 70.1319 161.458 74.1647 159.37 77.6144L161.081 78.65L162.792 79.6856C165.304 75.5353 166.531 70.7681 166.531 65.45H164.531ZM161.081 78.65L159.37 77.6144C157.224 81.1609 154.549 83.8671 151.352 85.785L152.381 87.5L153.41 89.215C157.214 86.9329 160.339 83.7391 162.792 79.6856L161.081 78.65ZM152.381 87.5L151.33 85.7984C148.2 87.7316 145.11 88.65 142.031 88.65V90.65V92.65C145.953 92.65 149.762 91.4684 153.432 89.2016L152.381 87.5ZM142.031 90.65L144.029 90.5549L143.879 87.4049L141.881 87.5L139.884 87.5951L140.034 90.7451L142.031 90.65ZM141.881 87.5V89.5C146.841 89.5 150.983 90.7113 154.402 93.0506L155.531 91.4L156.661 89.7494C152.48 86.8887 147.522 85.5 141.881 85.5V87.5ZM155.531 91.4L154.432 93.0708C157.908 95.3578 160.567 98.4652 162.418 102.443L164.231 101.6L166.045 100.757C163.895 96.1348 160.754 92.4422 156.63 89.7292L155.531 91.4ZM164.231 101.6L162.426 102.46C164.283 106.361 165.231 110.762 165.231 115.7H167.231H169.231C169.231 110.238 168.179 105.239 166.037 100.74L164.231 101.6ZM167.231 115.7H165.231C165.231 121.831 163.635 127.067 160.499 131.494L162.131 132.65L163.763 133.806C167.428 128.633 169.231 122.569 169.231 115.7H167.231ZM162.131 132.65L160.499 131.494C157.328 135.971 152.976 139.451 147.375 141.92L148.181 143.75L148.988 145.58C155.186 142.849 160.134 138.929 163.763 133.806L162.131 132.65ZM148.181 143.75L147.401 141.908C141.783 144.289 135.404 145.5 128.231 145.5V147.5V149.5C135.858 149.5 142.779 148.211 148.962 145.592L148.181 143.75Z" fill="#FF5B24" mask="url(#path-1-outside-1_34_59)"/>
</mask>
<g mask="url(#mask0_34_59)">
<path d="M201.5 11.5V155.5H-0.5V11.5H201.5Z" fill="url(#paint1_linear_34_59)" stroke="#FF5B24"/>
</g>
<defs>
<linearGradient id="paint0_linear_34_59" x1="-125" y1="81" x2="174.506" y2="81.8837" gradientUnits="userSpaceOnUse">
<stop stop-color="#FF5B24"/>
<stop offset="1" stop-color="#FF5B24" stop-opacity="0"/>
</linearGradient>
<linearGradient id="paint1_linear_34_59" x1="-149.392" y1="80.497" x2="206.16" y2="81.9486" gradientUnits="userSpaceOnUse">
<stop stop-color="#FF5B24"/>
<stop offset="1" stop-color="#FF5B24" stop-opacity="0"/>
</linearGradient>
</defs>
</svg>
