<svg width="202" height="169" viewBox="0 0 202 169" fill="none" xmlns="http://www.w3.org/2000/svg">
<mask id="mask0_34_66" style="mask-type:alpha" maskUnits="userSpaceOnUse" x="15" y="34" width="174" height="116">
<mask id="path-1-outside-1_34_66" maskUnits="userSpaceOnUse" x="15" y="34" width="174" height="116" fill="black">
<rect fill="white" x="15" y="34" width="174" height="116"/>
<path d="M63.6647 147.5C54.6647 147.5 46.6147 145.15 39.5146 140.45C32.5146 135.65 27.0146 129.05 23.0146 120.65C19.0146 112.15 17.0146 102.45 17.0146 91.55C17.0146 80.65 19.0146 71.1 23.0146 62.9C27.0146 54.6 32.5146 48.15 39.5146 43.55C46.6147 38.85 54.6647 36.5 63.6647 36.5C72.7647 36.5 80.8147 38.85 87.8147 43.55C94.8147 48.15 100.315 54.6 104.315 62.9C108.315 71.1 110.315 80.65 110.315 91.55C110.315 102.55 108.315 112.25 104.315 120.65C100.315 129.05 94.7647 135.65 87.6647 140.45C80.6647 145.15 72.6647 147.5 63.6647 147.5ZM63.6647 128.3C68.7647 128.3 72.9647 126.6 76.2647 123.2C79.5647 119.8 82.0147 115.3 83.6147 109.7C85.2147 104.1 86.0146 98 86.0146 91.4C86.0146 84.8 85.2147 78.8 83.6147 73.4C82.0147 68 79.5647 63.7 76.2647 60.5C72.9647 57.3 68.7647 55.7 63.6647 55.7C58.5647 55.7 54.3647 57.35 51.0646 60.65C47.7646 63.85 45.3146 68.15 43.7146 73.55C42.1146 78.95 41.3146 84.9 41.3146 91.4C41.3146 98.1 42.1146 104.25 43.7146 109.85C45.3146 115.45 47.7646 119.95 51.0646 123.35C54.4646 126.65 58.6647 128.3 63.6647 128.3ZM152.275 146V117.5L153.475 114.5V52.85L162.625 57.8L118.825 115.85L108.175 107.9H186.475V125.6H99.7748V107.9L152.875 38H175.675V146H152.275Z"/>
</mask>
<path d="M63.6647 147.5C54.6647 147.5 46.6147 145.15 39.5146 140.45C32.5146 135.65 27.0146 129.05 23.0146 120.65C19.0146 112.15 17.0146 102.45 17.0146 91.55C17.0146 80.65 19.0146 71.1 23.0146 62.9C27.0146 54.6 32.5146 48.15 39.5146 43.55C46.6147 38.85 54.6647 36.5 63.6647 36.5C72.7647 36.5 80.8147 38.85 87.8147 43.55C94.8147 48.15 100.315 54.6 104.315 62.9C108.315 71.1 110.315 80.65 110.315 91.55C110.315 102.55 108.315 112.25 104.315 120.65C100.315 129.05 94.7647 135.65 87.6647 140.45C80.6647 145.15 72.6647 147.5 63.6647 147.5ZM63.6647 128.3C68.7647 128.3 72.9647 126.6 76.2647 123.2C79.5647 119.8 82.0147 115.3 83.6147 109.7C85.2147 104.1 86.0146 98 86.0146 91.4C86.0146 84.8 85.2147 78.8 83.6147 73.4C82.0147 68 79.5647 63.7 76.2647 60.5C72.9647 57.3 68.7647 55.7 63.6647 55.7C58.5647 55.7 54.3647 57.35 51.0646 60.65C47.7646 63.85 45.3146 68.15 43.7146 73.55C42.1146 78.95 41.3146 84.9 41.3146 91.4C41.3146 98.1 42.1146 104.25 43.7146 109.85C45.3146 115.45 47.7646 119.95 51.0646 123.35C54.4646 126.65 58.6647 128.3 63.6647 128.3ZM152.275 146V117.5L153.475 114.5V52.85L162.625 57.8L118.825 115.85L108.175 107.9H186.475V125.6H99.7748V107.9L152.875 38H175.675V146H152.275Z" fill="url(#paint0_linear_34_66)"/>
<path d="M39.5146 140.45L38.3836 142.099L38.3971 142.109L38.4107 142.118L39.5146 140.45ZM23.0146 120.65L21.205 121.502L21.2089 121.51L23.0146 120.65ZM23.0146 62.9L24.8122 63.7769L24.8163 63.7683L23.0146 62.9ZM39.5146 43.55L40.613 45.2214L40.6186 45.2177L39.5146 43.55ZM87.8147 43.55L86.6998 45.2104L86.708 45.216L86.7163 45.2214L87.8147 43.55ZM104.315 62.9L102.513 63.7683L102.517 63.7768L104.315 62.9ZM104.315 120.65L106.12 121.51L104.315 120.65ZM87.6647 140.45L88.7795 142.11L88.7848 142.107L87.6647 140.45ZM76.2646 123.2L74.8295 121.807L76.2646 123.2ZM83.6147 109.7L85.5377 110.249L83.6147 109.7ZM83.6147 73.4L85.5322 72.8318L83.6147 73.4ZM76.2646 60.5L74.8724 61.9358V61.9358L76.2646 60.5ZM51.0646 60.65L52.4569 62.0858L52.468 62.0751L52.4789 62.0642L51.0646 60.65ZM51.0646 123.35L49.6295 124.743L49.6503 124.764L49.6717 124.785L51.0646 123.35ZM63.6646 147.5V145.5C55.0337 145.5 47.3721 143.253 40.6186 138.782L39.5146 140.45L38.4107 142.118C45.8572 147.047 54.2956 149.5 63.6646 149.5V147.5ZM39.5146 140.45L40.6457 138.801C33.9636 134.219 28.6839 127.904 24.8204 119.79L23.0146 120.65L21.2089 121.51C25.3454 130.196 31.0657 137.081 38.3836 142.099L39.5146 140.45ZM23.0146 120.65L24.8243 119.798C20.9682 111.604 19.0146 102.203 19.0146 91.55H17.0146H15.0146C15.0146 102.697 17.0611 112.696 21.205 121.502L23.0146 120.65ZM17.0146 91.55H19.0146C19.0146 80.8953 20.9689 71.6556 24.8122 63.7768L23.0146 62.9L21.2171 62.0232C17.0604 70.5444 15.0146 80.4047 15.0146 91.55H17.0146ZM23.0146 62.9L24.8163 63.7683C28.6752 55.7611 33.9456 49.6028 40.613 45.2214L39.5146 43.55L38.4163 41.8786C31.0837 46.6972 25.3541 53.4389 21.213 62.0317L23.0146 62.9ZM39.5146 43.55L40.6186 45.2177C47.3721 40.7471 55.0337 38.5 63.6646 38.5V36.5V34.5C54.2956 34.5 45.8572 36.9529 38.4107 41.8823L39.5146 43.55ZM63.6646 36.5V38.5C72.4006 38.5 80.0558 40.7495 86.6998 45.2104L87.8147 43.55L88.9295 41.8896C81.5735 36.9505 73.1288 34.5 63.6646 34.5V36.5ZM87.8147 43.55L86.7163 45.2214C93.3837 49.6028 98.6541 55.7611 102.513 63.7683L104.315 62.9L106.116 62.0317C101.975 53.4389 96.2457 46.6972 88.913 41.8786L87.8147 43.55ZM104.315 62.9L102.517 63.7768C106.36 71.6556 108.315 80.8953 108.315 91.55H110.315H112.315C112.315 80.4047 110.269 70.5444 106.112 62.0232L104.315 62.9ZM110.315 91.55H108.315C108.315 102.306 106.36 111.703 102.509 119.79L104.315 120.65L106.12 121.51C110.27 112.797 112.315 102.794 112.315 91.55H110.315ZM104.315 120.65L102.509 119.79C98.6487 127.897 93.3239 134.21 86.5445 138.793L87.6647 140.45L88.7848 142.107C96.2054 137.09 101.981 130.203 106.12 121.51L104.315 120.65ZM87.6647 140.45L86.5498 138.79C79.9021 143.253 72.2957 145.5 63.6646 145.5V147.5V149.5C73.0336 149.5 81.4272 147.047 88.7795 142.11L87.6647 140.45ZM63.6646 128.3V130.3C69.2596 130.3 73.9924 128.413 77.6998 124.593L76.2646 123.2L74.8295 121.807C71.9369 124.787 68.2697 126.3 63.6646 126.3V128.3ZM76.2646 123.2L77.6998 124.593C81.2764 120.908 83.8676 116.095 85.5377 110.249L83.6147 109.7L81.6916 109.151C80.1617 114.505 77.8529 118.692 74.8295 121.807L76.2646 123.2ZM83.6147 109.7L85.5377 110.249C87.195 104.449 88.0146 98.1615 88.0146 91.4H86.0146H84.0146C84.0146 97.8385 83.2343 103.751 81.6916 109.151L83.6147 109.7ZM86.0146 91.4H88.0146C88.0146 84.6398 87.1953 78.4447 85.5322 72.8318L83.6147 73.4L81.6971 73.9682C83.234 79.1553 84.0146 84.9602 84.0146 91.4H86.0146ZM83.6147 73.4L85.5322 72.8318C83.8564 67.1759 81.2535 62.5518 77.6569 59.0642L76.2646 60.5L74.8724 61.9358C77.8758 64.8482 80.1729 68.8241 81.6971 73.9682L83.6147 73.4ZM76.2646 60.5L77.6569 59.0642C73.9415 55.4613 69.2224 53.7 63.6646 53.7V55.7V57.7C68.3069 57.7 71.9878 59.1387 74.8724 61.9358L76.2646 60.5ZM63.6646 55.7V53.7C58.0884 53.7 53.3622 55.5241 49.6504 59.2358L51.0646 60.65L52.4789 62.0642C55.3671 59.1759 59.0409 57.7 63.6646 57.7V55.7ZM51.0646 60.65L49.6724 59.2142C46.0758 62.7018 43.4729 67.3259 41.7971 72.9818L43.7146 73.55L45.6322 74.1182C47.1564 68.9741 49.4535 64.9982 52.4569 62.0858L51.0646 60.65ZM43.7146 73.55L41.7971 72.9818C40.1347 78.5921 39.3146 84.7366 39.3146 91.4H41.3146H43.3146C43.3146 85.0634 44.0946 79.3079 45.6322 74.1182L43.7146 73.55ZM41.3146 91.4H39.3146C39.3146 98.2585 40.1336 104.596 41.7916 110.399L43.7146 109.85L45.6377 109.301C44.0957 103.904 43.3146 97.9415 43.3146 91.4H41.3146ZM43.7146 109.85L41.7916 110.399C43.4617 116.245 46.0529 121.058 49.6295 124.743L51.0646 123.35L52.4998 121.957C49.4764 118.842 47.1676 114.655 45.6377 109.301L43.7146 109.85ZM51.0646 123.35L49.6717 124.785C53.4671 128.469 58.1763 130.3 63.6646 130.3V128.3V126.3C59.153 126.3 55.4622 124.831 52.4576 121.915L51.0646 123.35ZM152.275 146H150.275V148H152.275V146ZM152.275 117.5L150.418 116.757L150.275 117.115V117.5H152.275ZM153.475 114.5L155.332 115.243L155.475 114.885V114.5H153.475ZM153.475 52.85L154.426 51.0909L151.475 49.4941V52.85H153.475ZM162.625 57.8L164.221 59.0046L165.622 57.1477L163.576 56.0409L162.625 57.8ZM118.825 115.85L117.628 117.453L119.223 118.643L120.421 117.055L118.825 115.85ZM108.175 107.9V105.9H102.152L106.978 109.503L108.175 107.9ZM186.475 107.9H188.475V105.9H186.475V107.9ZM186.475 125.6V127.6H188.475V125.6H186.475ZM99.7748 125.6H97.7748V127.6H99.7748V125.6ZM99.7748 107.9L98.1822 106.69L97.7748 107.226V107.9H99.7748ZM152.875 38V36H151.882L151.282 36.7902L152.875 38ZM175.675 38H177.675V36H175.675V38ZM175.675 146V148H177.675V146H175.675ZM152.275 146H154.275V117.5H152.275H150.275V146H152.275ZM152.275 117.5L154.132 118.243L155.332 115.243L153.475 114.5L151.618 113.757L150.418 116.757L152.275 117.5ZM153.475 114.5H155.475V52.85H153.475H151.475V114.5H153.475ZM153.475 52.85L152.523 54.6091L161.673 59.5591L162.625 57.8L163.576 56.0409L154.426 51.0909L153.475 52.85ZM162.625 57.8L161.028 56.5954L117.228 114.645L118.825 115.85L120.421 117.055L164.221 59.0046L162.625 57.8ZM118.825 115.85L120.021 114.247L109.371 106.297L108.175 107.9L106.978 109.503L117.628 117.453L118.825 115.85ZM108.175 107.9V109.9H186.475V107.9V105.9H108.175V107.9ZM186.475 107.9H184.475V125.6H186.475H188.475V107.9H186.475ZM186.475 125.6V123.6H99.7748V125.6V127.6H186.475V125.6ZM99.7748 125.6H101.775V107.9H99.7748H97.7748V125.6H99.7748ZM99.7748 107.9L101.367 109.11L154.467 39.2098L152.875 38L151.282 36.7902L98.1822 106.69L99.7748 107.9ZM152.875 38V40H175.675V38V36H152.875V38ZM175.675 38H173.675V146H175.675H177.675V38H175.675ZM175.675 146V144H152.275V146V148H175.675V146Z" fill="#FF5B24" mask="url(#path-1-outside-1_34_66)"/>
</mask>
<g mask="url(#mask0_34_66)">
<path d="M211.5 11.5V155.5H-0.5V11.5H211.5Z" fill="url(#paint1_linear_34_66)" stroke="#FF5B24"/>
</g>
<defs>
<linearGradient id="paint0_linear_34_66" x1="-142" y1="77.5" x2="209.005" y2="77.8848" gradientUnits="userSpaceOnUse">
<stop stop-color="#FF5B24"/>
<stop offset="1" stop-color="#FF5B24" stop-opacity="0"/>
</linearGradient>
<linearGradient id="paint1_linear_34_66" x1="-150.733" y1="77.4941" x2="219.386" y2="77.9927" gradientUnits="userSpaceOnUse">
<stop stop-color="#FF5B24"/>
<stop offset="1" stop-color="#FF5B24" stop-opacity="0"/>
</linearGradient>
</defs>
</svg>
