<svg width="202" height="169" viewBox="0 0 202 169" fill="none" xmlns="http://www.w3.org/2000/svg">
<mask id="mask0_34_73" style="mask-type:alpha" maskUnits="userSpaceOnUse" x="17" y="34" width="168" height="116">
<mask id="path-1-outside-1_34_73" maskUnits="userSpaceOnUse" x="17" y="34" width="168" height="116" fill="black">
<rect fill="white" x="17" y="34" width="168" height="116"/>
<path d="M66.3746 147.5C57.3746 147.5 49.3246 145.15 42.2246 140.45C35.2246 135.65 29.7246 129.05 25.7246 120.65C21.7246 112.15 19.7246 102.45 19.7246 91.55C19.7246 80.65 21.7246 71.1 25.7246 62.9C29.7246 54.6 35.2246 48.15 42.2246 43.55C49.3246 38.85 57.3746 36.5 66.3746 36.5C75.4746 36.5 83.5246 38.85 90.5246 43.55C97.5246 48.15 103.025 54.6 107.025 62.9C111.025 71.1 113.025 80.65 113.025 91.55C113.025 102.55 111.025 112.25 107.025 120.65C103.025 129.05 97.4746 135.65 90.3746 140.45C83.3746 145.15 75.3746 147.5 66.3746 147.5ZM66.3746 128.3C71.4746 128.3 75.6746 126.6 78.9746 123.2C82.2746 119.8 84.7246 115.3 86.3246 109.7C87.9246 104.1 88.7246 98 88.7246 91.4C88.7246 84.8 87.9246 78.8 86.3246 73.4C84.7246 68 82.2746 63.7 78.9746 60.5C75.6746 57.3 71.4746 55.7 66.3746 55.7C61.2746 55.7 57.0746 57.35 53.7746 60.65C50.4746 63.85 48.0246 68.15 46.4246 73.55C44.8246 78.95 44.0246 84.9 44.0246 91.4C44.0246 98.1 44.8246 104.25 46.4246 109.85C48.0246 115.45 50.4746 119.95 53.7746 123.35C57.1746 126.65 61.3746 128.3 66.3746 128.3ZM143.131 147.5C132.031 147.5 122.931 144.65 115.831 138.95C108.731 133.25 104.331 125.25 102.631 114.95H125.581C126.381 119.55 128.381 123.2 131.581 125.9C134.781 128.5 138.431 129.8 142.531 129.8C147.231 129.8 150.981 128.2 153.781 125C156.681 121.7 158.131 116.75 158.131 110.15C158.131 103.85 156.781 99.05 154.081 95.75C151.381 92.35 147.681 90.65 142.981 90.65C140.281 90.65 137.731 91.3 135.331 92.6C132.931 93.8 130.931 95.8 129.331 98.6H108.331L113.881 38H175.981V55.7H121.981L134.281 54.05L131.581 87.8L124.081 86.75C126.681 82.65 129.831 79.55 133.531 77.45C137.331 75.25 142.131 74.15 147.931 74.15C154.831 74.15 160.881 75.65 166.081 78.65C171.281 81.65 175.331 85.85 178.231 91.25C181.131 96.65 182.581 103.05 182.581 110.45C182.581 118.25 180.931 124.9 177.631 130.4C174.331 135.9 169.731 140.15 163.831 143.15C157.931 146.05 151.031 147.5 143.131 147.5Z"/>
</mask>
<path d="M66.3746 147.5C57.3746 147.5 49.3246 145.15 42.2246 140.45C35.2246 135.65 29.7246 129.05 25.7246 120.65C21.7246 112.15 19.7246 102.45 19.7246 91.55C19.7246 80.65 21.7246 71.1 25.7246 62.9C29.7246 54.6 35.2246 48.15 42.2246 43.55C49.3246 38.85 57.3746 36.5 66.3746 36.5C75.4746 36.5 83.5246 38.85 90.5246 43.55C97.5246 48.15 103.025 54.6 107.025 62.9C111.025 71.1 113.025 80.65 113.025 91.55C113.025 102.55 111.025 112.25 107.025 120.65C103.025 129.05 97.4746 135.65 90.3746 140.45C83.3746 145.15 75.3746 147.5 66.3746 147.5ZM66.3746 128.3C71.4746 128.3 75.6746 126.6 78.9746 123.2C82.2746 119.8 84.7246 115.3 86.3246 109.7C87.9246 104.1 88.7246 98 88.7246 91.4C88.7246 84.8 87.9246 78.8 86.3246 73.4C84.7246 68 82.2746 63.7 78.9746 60.5C75.6746 57.3 71.4746 55.7 66.3746 55.7C61.2746 55.7 57.0746 57.35 53.7746 60.65C50.4746 63.85 48.0246 68.15 46.4246 73.55C44.8246 78.95 44.0246 84.9 44.0246 91.4C44.0246 98.1 44.8246 104.25 46.4246 109.85C48.0246 115.45 50.4746 119.95 53.7746 123.35C57.1746 126.65 61.3746 128.3 66.3746 128.3ZM143.131 147.5C132.031 147.5 122.931 144.65 115.831 138.95C108.731 133.25 104.331 125.25 102.631 114.95H125.581C126.381 119.55 128.381 123.2 131.581 125.9C134.781 128.5 138.431 129.8 142.531 129.8C147.231 129.8 150.981 128.2 153.781 125C156.681 121.7 158.131 116.75 158.131 110.15C158.131 103.85 156.781 99.05 154.081 95.75C151.381 92.35 147.681 90.65 142.981 90.65C140.281 90.65 137.731 91.3 135.331 92.6C132.931 93.8 130.931 95.8 129.331 98.6H108.331L113.881 38H175.981V55.7H121.981L134.281 54.05L131.581 87.8L124.081 86.75C126.681 82.65 129.831 79.55 133.531 77.45C137.331 75.25 142.131 74.15 147.931 74.15C154.831 74.15 160.881 75.65 166.081 78.65C171.281 81.65 175.331 85.85 178.231 91.25C181.131 96.65 182.581 103.05 182.581 110.45C182.581 118.25 180.931 124.9 177.631 130.4C174.331 135.9 169.731 140.15 163.831 143.15C157.931 146.05 151.031 147.5 143.131 147.5Z" fill="url(#paint0_linear_34_73)"/>
<path d="M42.2246 140.45L41.0936 142.099L41.107 142.109L41.1206 142.118L42.2246 140.45ZM25.7246 120.65L23.915 121.502L23.9189 121.51L25.7246 120.65ZM25.7246 62.9L27.5222 63.7769L27.5263 63.7683L25.7246 62.9ZM42.2246 43.55L43.323 45.2214L43.3286 45.2177L42.2246 43.55ZM90.5246 43.55L89.4097 45.2104L89.418 45.216L89.4263 45.2214L90.5246 43.55ZM107.025 62.9L105.223 63.7683L105.227 63.7768L107.025 62.9ZM107.025 120.65L108.83 121.51L107.025 120.65ZM90.3746 140.45L91.4895 142.11L91.4948 142.107L90.3746 140.45ZM78.9746 123.2L77.5395 121.807L78.9746 123.2ZM86.3246 109.7L88.2477 110.249L86.3246 109.7ZM86.3246 73.4L88.2422 72.8318L86.3246 73.4ZM78.9746 60.5L77.5823 61.9358V61.9358L78.9746 60.5ZM53.7746 60.65L55.1669 62.0858L55.1779 62.0751L55.1888 62.0642L53.7746 60.65ZM53.7746 123.35L52.3394 124.743L52.3602 124.764L52.3817 124.785L53.7746 123.35ZM66.3746 147.5V145.5C57.7437 145.5 50.0821 143.253 43.3286 138.782L42.2246 140.45L41.1206 142.118C48.5671 147.047 57.0055 149.5 66.3746 149.5V147.5ZM42.2246 140.45L43.3557 138.801C36.6736 134.219 31.3939 127.904 27.5303 119.79L25.7246 120.65L23.9189 121.51C28.0553 130.196 33.7756 137.081 41.0936 142.099L42.2246 140.45ZM25.7246 120.65L27.5342 119.798C23.6782 111.604 21.7246 102.203 21.7246 91.55H19.7246H17.7246C17.7246 102.697 19.771 112.696 23.915 121.502L25.7246 120.65ZM19.7246 91.55H21.7246C21.7246 80.8953 23.6789 71.6556 27.5221 63.7768L25.7246 62.9L23.9271 62.0232C19.7704 70.5444 17.7246 80.4047 17.7246 91.55H19.7246ZM25.7246 62.9L27.5263 63.7683C31.3852 55.7611 36.6556 49.6028 43.323 45.2214L42.2246 43.55L41.1263 41.8786C33.7936 46.6972 28.0641 53.4389 23.9229 62.0317L25.7246 62.9ZM42.2246 43.55L43.3286 45.2177C50.0821 40.7471 57.7437 38.5 66.3746 38.5V36.5V34.5C57.0055 34.5 48.5671 36.9529 41.1206 41.8823L42.2246 43.55ZM66.3746 36.5V38.5C75.1105 38.5 82.7658 40.7495 89.4097 45.2104L90.5246 43.55L91.6395 41.8896C84.2834 36.9505 75.8387 34.5 66.3746 34.5V36.5ZM90.5246 43.55L89.4263 45.2214C96.0936 49.6028 101.364 55.7611 105.223 63.7683L107.025 62.9L108.826 62.0317C104.685 53.4389 98.9556 46.6972 91.623 41.8786L90.5246 43.55ZM107.025 62.9L105.227 63.7768C109.07 71.6556 111.025 80.8953 111.025 91.55H113.025H115.025C115.025 80.4047 112.979 70.5444 108.822 62.0232L107.025 62.9ZM113.025 91.55H111.025C111.025 102.306 109.07 111.703 105.219 119.79L107.025 120.65L108.83 121.51C112.979 112.797 115.025 102.794 115.025 91.55H113.025ZM107.025 120.65L105.219 119.79C101.359 127.897 96.0339 134.21 89.2545 138.793L90.3746 140.45L91.4948 142.107C98.9153 137.09 104.691 130.203 108.83 121.51L107.025 120.65ZM90.3746 140.45L89.2598 138.79C82.612 143.253 75.0057 145.5 66.3746 145.5V147.5V149.5C75.7436 149.5 84.1372 147.047 91.4895 142.11L90.3746 140.45ZM66.3746 128.3V130.3C71.9695 130.3 76.7023 128.413 80.4098 124.593L78.9746 123.2L77.5395 121.807C74.6469 124.787 70.9797 126.3 66.3746 126.3V128.3ZM78.9746 123.2L80.4098 124.593C83.9864 120.908 86.5776 116.095 88.2477 110.249L86.3246 109.7L84.4016 109.151C82.8717 114.505 80.5629 118.692 77.5395 121.807L78.9746 123.2ZM86.3246 109.7L88.2477 110.249C89.905 104.449 90.7246 98.1615 90.7246 91.4H88.7246H86.7246C86.7246 97.8385 85.9442 103.751 84.4016 109.151L86.3246 109.7ZM88.7246 91.4H90.7246C90.7246 84.6398 89.9053 78.4447 88.2422 72.8318L86.3246 73.4L84.407 73.9682C85.9439 79.1553 86.7246 84.9602 86.7246 91.4H88.7246ZM86.3246 73.4L88.2422 72.8318C86.5664 67.1759 83.9635 62.5518 80.3669 59.0642L78.9746 60.5L77.5823 61.9358C80.5857 64.8482 82.8828 68.8241 84.407 73.9682L86.3246 73.4ZM78.9746 60.5L80.3669 59.0642C76.6515 55.4613 71.9323 53.7 66.3746 53.7V55.7V57.7C71.0169 57.7 74.6978 59.1387 77.5823 61.9358L78.9746 60.5ZM66.3746 55.7V53.7C60.7984 53.7 56.0721 55.5241 52.3604 59.2358L53.7746 60.65L55.1888 62.0642C58.0771 59.1759 61.7509 57.7 66.3746 57.7V55.7ZM53.7746 60.65L52.3823 59.2142C48.7857 62.7018 46.1828 67.3259 44.507 72.9818L46.4246 73.55L48.3422 74.1182C49.8664 68.9741 52.1635 64.9982 55.1669 62.0858L53.7746 60.65ZM46.4246 73.55L44.507 72.9818C42.8447 78.5921 42.0246 84.7366 42.0246 91.4H44.0246H46.0246C46.0246 85.0634 46.8045 79.3079 48.3422 74.1182L46.4246 73.55ZM44.0246 91.4H42.0246C42.0246 98.2585 42.8435 104.596 44.5016 110.399L46.4246 109.85L48.3477 109.301C46.8057 103.904 46.0246 97.9415 46.0246 91.4H44.0246ZM46.4246 109.85L44.5016 110.399C46.1717 116.245 48.7629 121.058 52.3394 124.743L53.7746 123.35L55.2098 121.957C52.1864 118.842 49.8776 114.655 48.3477 109.301L46.4246 109.85ZM53.7746 123.35L52.3817 124.785C56.1771 128.469 60.8863 130.3 66.3746 130.3V128.3V126.3C61.8629 126.3 58.1721 124.831 55.1676 121.915L53.7746 123.35ZM115.831 138.95L114.579 140.51L115.831 138.95ZM102.631 114.95V112.95H100.274L100.658 115.276L102.631 114.95ZM125.581 114.95L127.552 114.607L127.263 112.95H125.581V114.95ZM131.581 125.9L130.292 127.429L130.306 127.441L130.32 127.452L131.581 125.9ZM153.781 125L152.279 123.68L152.276 123.683L153.781 125ZM154.081 95.75L152.515 96.9938L152.524 97.0052L152.533 97.0165L154.081 95.75ZM135.331 92.6L136.226 94.3889L136.255 94.3742L136.284 94.3586L135.331 92.6ZM129.331 98.6V100.6H130.492L131.068 99.5923L129.331 98.6ZM108.331 98.6L106.34 98.4176L106.14 100.6H108.331V98.6ZM113.881 38V36H112.056L111.89 37.8176L113.881 38ZM175.981 38H177.981V36H175.981V38ZM175.981 55.7V57.7H177.981V55.7H175.981ZM121.981 55.7L121.715 53.7177L121.981 57.7V55.7ZM134.281 54.05L136.275 54.2095L136.473 51.7381L134.015 52.0677L134.281 54.05ZM131.581 87.8L131.304 89.7807L133.406 90.0749L133.575 87.9595L131.581 87.8ZM124.081 86.75L122.392 85.6789L120.73 88.3003L123.804 88.7307L124.081 86.75ZM133.531 77.45L134.518 79.1894L134.526 79.1851L134.533 79.1808L133.531 77.45ZM166.081 78.65L167.081 76.9176L166.081 78.65ZM178.231 91.25L176.469 92.1963H176.469L178.231 91.25ZM177.631 130.4L179.346 131.429L177.631 130.4ZM163.831 143.15L164.713 144.945L164.726 144.939L164.738 144.933L163.831 143.15ZM143.131 147.5V145.5C132.384 145.5 123.756 142.747 117.083 137.39L115.831 138.95L114.579 140.51C122.107 146.553 131.679 149.5 143.131 149.5V147.5ZM115.831 138.95L117.083 137.39C110.424 132.044 106.237 124.514 104.605 114.624L102.631 114.95L100.658 115.276C102.426 125.986 107.039 134.456 114.579 140.51L115.831 138.95ZM102.631 114.95V116.95H125.581V114.95V112.95H102.631V114.95ZM125.581 114.95L123.611 115.293C124.481 120.299 126.691 124.39 130.292 127.429L131.581 125.9L132.871 124.371C130.072 122.01 128.281 118.801 127.552 114.607L125.581 114.95ZM131.581 125.9L130.32 127.452C133.874 130.34 137.969 131.8 142.531 131.8V129.8V127.8C138.893 127.8 135.688 126.66 132.842 124.348L131.581 125.9ZM142.531 129.8V131.8C147.74 131.8 152.064 130 155.286 126.317L153.781 125L152.276 123.683C149.899 126.4 146.723 127.8 142.531 127.8V129.8ZM153.781 125L155.284 126.32C158.632 122.51 160.131 116.999 160.131 110.15H158.131H156.131C156.131 116.501 154.73 120.89 152.279 123.68L153.781 125ZM158.131 110.15H160.131C160.131 103.601 158.733 98.2768 155.629 94.4835L154.081 95.75L152.533 97.0165C154.83 99.8232 156.131 104.099 156.131 110.15H158.131ZM154.081 95.75L155.647 94.5062C152.534 90.585 148.234 88.65 142.981 88.65V90.65V92.65C147.129 92.65 150.229 94.115 152.515 96.9938L154.081 95.75ZM142.981 90.65V88.65C139.945 88.65 137.068 89.3848 134.379 90.8414L135.331 92.6L136.284 94.3586C138.395 93.2152 140.618 92.65 142.981 92.65V90.65ZM135.331 92.6L134.437 90.8111C131.618 92.2207 129.351 94.5351 127.595 97.6077L129.331 98.6L131.068 99.5923C132.512 97.0649 134.245 95.3793 136.226 94.3889L135.331 92.6ZM129.331 98.6V96.6H108.331V98.6V100.6H129.331V98.6ZM108.331 98.6L110.323 98.7824L115.873 38.1824L113.881 38L111.89 37.8176L106.34 98.4176L108.331 98.6ZM113.881 38V40H175.981V38V36H113.881V38ZM175.981 38H173.981V55.7H175.981H177.981V38H175.981ZM175.981 55.7V53.7H121.981V55.7V57.7H175.981V55.7ZM121.981 55.7L122.247 57.6822L134.547 56.0322L134.281 54.05L134.015 52.0677L121.715 53.7177L121.981 55.7ZM134.281 54.05L132.288 53.8905L129.588 87.6405L131.581 87.8L133.575 87.9595L136.275 54.2095L134.281 54.05ZM131.581 87.8L131.859 85.8193L124.359 84.7693L124.081 86.75L123.804 88.7307L131.304 89.7807L131.581 87.8ZM124.081 86.75L125.77 87.8211C128.22 83.9585 131.142 81.1059 134.518 79.1894L133.531 77.45L132.544 75.7106C128.521 77.9941 125.143 81.3414 122.392 85.6789L124.081 86.75ZM133.531 77.45L134.533 79.1808C137.946 77.2049 142.374 76.15 147.931 76.15V74.15V72.15C141.889 72.15 136.716 73.295 132.529 75.7191L133.531 77.45ZM147.931 74.15V76.15C154.534 76.15 160.229 77.5825 165.082 80.3824L166.081 78.65L167.081 76.9176C161.534 73.7175 155.129 72.15 147.931 72.15V74.15ZM166.081 78.65L165.082 80.3824C169.952 83.1923 173.741 87.1169 176.469 92.1963L178.231 91.25L179.993 90.3037C176.921 84.5831 172.61 80.1077 167.081 76.9176L166.081 78.65ZM178.231 91.25L176.469 92.1963C179.184 97.2508 180.581 103.312 180.581 110.45H182.581H184.581C184.581 102.788 183.079 96.0492 179.993 90.3037L178.231 91.25ZM182.581 110.45H180.581C180.581 117.966 178.993 124.243 175.916 129.371L177.631 130.4L179.346 131.429C182.869 125.557 184.581 118.534 184.581 110.45H182.581ZM177.631 130.4L175.916 129.371C172.816 134.538 168.501 138.532 162.925 141.367L163.831 143.15L164.738 144.933C170.961 141.768 175.847 137.262 179.346 131.429L177.631 130.4ZM163.831 143.15L162.949 141.355C157.373 144.096 150.786 145.5 143.131 145.5V147.5V149.5C151.276 149.5 158.489 148.004 164.713 144.945L163.831 143.15Z" fill="#FF5B24" mask="url(#path-1-outside-1_34_73)"/>
</mask>
<g mask="url(#mask0_34_73)">
<path d="M211.5 11.5V155.5H-0.5V11.5H211.5Z" fill="url(#paint1_linear_34_73)" stroke="#FF5B24"/>
</g>
<defs>
<linearGradient id="paint0_linear_34_73" x1="-133" y1="76.5" x2="209.012" y2="77.4902" gradientUnits="userSpaceOnUse">
<stop stop-color="#FF5B24"/>
<stop offset="1" stop-color="#FF5B24" stop-opacity="0"/>
</linearGradient>
<linearGradient id="paint1_linear_34_73" x1="-141.243" y1="76.6361" x2="219.392" y2="77.9193" gradientUnits="userSpaceOnUse">
<stop stop-color="#FF5B24"/>
<stop offset="1" stop-color="#FF5B24" stop-opacity="0"/>
</linearGradient>
</defs>
</svg>
