<svg width="202" height="169" viewBox="0 0 202 169" fill="none" xmlns="http://www.w3.org/2000/svg">
<mask id="mask0_34_80" style="mask-type:alpha" maskUnits="userSpaceOnUse" x="13" y="34" width="177" height="116">
<mask id="path-1-outside-1_34_80" maskUnits="userSpaceOnUse" x="13" y="34" width="177" height="116" fill="black">
<rect fill="white" x="13" y="34" width="177" height="116"/>
<path d="M62.273 147.5C53.273 147.5 45.223 145.15 38.123 140.45C31.123 135.65 25.623 129.05 21.623 120.65C17.623 112.15 15.623 102.45 15.623 91.55C15.623 80.65 17.623 71.1 21.623 62.9C25.623 54.6 31.123 48.15 38.123 43.55C45.223 38.85 53.273 36.5 62.273 36.5C71.373 36.5 79.423 38.85 86.4231 43.55C93.4231 48.15 98.9231 54.6 102.923 62.9C106.923 71.1 108.923 80.65 108.923 91.55C108.923 102.55 106.923 112.25 102.923 120.65C98.9231 129.05 93.3731 135.65 86.2731 140.45C79.2731 145.15 71.2731 147.5 62.273 147.5ZM62.273 128.3C67.373 128.3 71.573 126.6 74.873 123.2C78.1731 119.8 80.6231 115.3 82.2231 109.7C83.823 104.1 84.623 98 84.623 91.4C84.623 84.8 83.823 78.8 82.2231 73.4C80.6231 68 78.1731 63.7 74.873 60.5C71.573 57.3 67.373 55.7 62.273 55.7C57.1731 55.7 52.973 57.35 49.673 60.65C46.373 63.85 43.923 68.15 42.323 73.55C40.723 78.95 39.923 84.9 39.923 91.4C39.923 98.1 40.723 104.25 42.323 109.85C43.923 115.45 46.373 119.95 49.673 123.35C53.073 126.65 57.273 128.3 62.273 128.3ZM146.47 147.5C132.27 147.5 121.27 142.9 113.47 133.7C105.77 124.4 101.92 111.3 101.92 94.4C101.92 82.5 103.77 72.25 107.47 63.65C111.27 54.95 116.62 48.25 123.52 43.55C130.42 38.85 138.52 36.5 147.82 36.5C158.32 36.5 166.87 39.3 173.47 44.9C180.17 50.4 184.27 58.05 185.77 67.85H162.82C162.32 63.45 160.67 60.1 157.87 57.8C155.17 55.4 151.77 54.2 147.67 54.2C140.37 54.2 134.92 57.35 131.32 63.65C127.72 69.95 125.92 79.7 125.92 92.9V102.65L121.27 101.3C122.37 96.5 124.32 92.35 127.12 88.85C129.92 85.35 133.42 82.65 137.62 80.75C141.92 78.85 146.72 77.9 152.02 77.9C159.02 77.9 165.17 79.35 170.47 82.25C175.77 85.05 179.87 89.05 182.77 94.25C185.77 99.35 187.27 105.35 187.27 112.25C187.27 119.35 185.57 125.55 182.17 130.85C178.87 136.15 174.17 140.25 168.07 143.15C161.97 146.05 154.77 147.5 146.47 147.5ZM144.82 129.8C149.92 129.8 154.17 128.35 157.57 125.45C161.07 122.45 162.82 118.1 162.82 112.4C162.82 106.7 161.02 102.45 157.42 99.65C153.92 96.75 149.62 95.3 144.52 95.3C139.32 95.3 134.92 96.75 131.32 99.65C127.72 102.45 125.92 106.6 125.92 112.1C125.92 115.8 126.77 119 128.47 121.7C130.27 124.3 132.57 126.3 135.37 127.7C138.27 129.1 141.42 129.8 144.82 129.8Z"/>
</mask>
<path d="M62.273 147.5C53.273 147.5 45.223 145.15 38.123 140.45C31.123 135.65 25.623 129.05 21.623 120.65C17.623 112.15 15.623 102.45 15.623 91.55C15.623 80.65 17.623 71.1 21.623 62.9C25.623 54.6 31.123 48.15 38.123 43.55C45.223 38.85 53.273 36.5 62.273 36.5C71.373 36.5 79.423 38.85 86.4231 43.55C93.4231 48.15 98.9231 54.6 102.923 62.9C106.923 71.1 108.923 80.65 108.923 91.55C108.923 102.55 106.923 112.25 102.923 120.65C98.9231 129.05 93.3731 135.65 86.2731 140.45C79.2731 145.15 71.2731 147.5 62.273 147.5ZM62.273 128.3C67.373 128.3 71.573 126.6 74.873 123.2C78.1731 119.8 80.6231 115.3 82.2231 109.7C83.823 104.1 84.623 98 84.623 91.4C84.623 84.8 83.823 78.8 82.2231 73.4C80.6231 68 78.1731 63.7 74.873 60.5C71.573 57.3 67.373 55.7 62.273 55.7C57.1731 55.7 52.973 57.35 49.673 60.65C46.373 63.85 43.923 68.15 42.323 73.55C40.723 78.95 39.923 84.9 39.923 91.4C39.923 98.1 40.723 104.25 42.323 109.85C43.923 115.45 46.373 119.95 49.673 123.35C53.073 126.65 57.273 128.3 62.273 128.3ZM146.47 147.5C132.27 147.5 121.27 142.9 113.47 133.7C105.77 124.4 101.92 111.3 101.92 94.4C101.92 82.5 103.77 72.25 107.47 63.65C111.27 54.95 116.62 48.25 123.52 43.55C130.42 38.85 138.52 36.5 147.82 36.5C158.32 36.5 166.87 39.3 173.47 44.9C180.17 50.4 184.27 58.05 185.77 67.85H162.82C162.32 63.45 160.67 60.1 157.87 57.8C155.17 55.4 151.77 54.2 147.67 54.2C140.37 54.2 134.92 57.35 131.32 63.65C127.72 69.95 125.92 79.7 125.92 92.9V102.65L121.27 101.3C122.37 96.5 124.32 92.35 127.12 88.85C129.92 85.35 133.42 82.65 137.62 80.75C141.92 78.85 146.72 77.9 152.02 77.9C159.02 77.9 165.17 79.35 170.47 82.25C175.77 85.05 179.87 89.05 182.77 94.25C185.77 99.35 187.27 105.35 187.27 112.25C187.27 119.35 185.57 125.55 182.17 130.85C178.87 136.15 174.17 140.25 168.07 143.15C161.97 146.05 154.77 147.5 146.47 147.5ZM144.82 129.8C149.92 129.8 154.17 128.35 157.57 125.45C161.07 122.45 162.82 118.1 162.82 112.4C162.82 106.7 161.02 102.45 157.42 99.65C153.92 96.75 149.62 95.3 144.52 95.3C139.32 95.3 134.92 96.75 131.32 99.65C127.72 102.45 125.92 106.6 125.92 112.1C125.92 115.8 126.77 119 128.47 121.7C130.27 124.3 132.57 126.3 135.37 127.7C138.27 129.1 141.42 129.8 144.82 129.8Z" fill="url(#paint0_linear_34_80)"/>
<path d="M38.123 140.45L36.992 142.099L37.0055 142.109L37.0191 142.118L38.123 140.45ZM21.623 120.65L19.8134 121.502L19.8173 121.51L21.623 120.65ZM21.623 62.9L23.4206 63.7769L23.4247 63.7683L21.623 62.9ZM38.123 43.55L39.2214 45.2214L39.227 45.2177L38.123 43.55ZM86.423 43.55L85.3082 45.2104L85.3164 45.216L85.3247 45.2214L86.423 43.55ZM102.923 62.9L101.121 63.7683L101.126 63.7768L102.923 62.9ZM102.923 120.65L104.729 121.51L102.923 120.65ZM86.2731 140.45L87.3879 142.11L87.3932 142.107L86.2731 140.45ZM74.873 123.2L73.4379 121.807L74.873 123.2ZM82.2231 109.7L84.1461 110.249L82.2231 109.7ZM82.2231 73.4L84.1406 72.8318L82.2231 73.4ZM74.873 60.5L73.4808 61.9358V61.9358L74.873 60.5ZM49.673 60.65L51.0653 62.0858L51.0764 62.0751L51.0873 62.0642L49.673 60.65ZM49.673 123.35L48.2379 124.743L48.2587 124.764L48.2801 124.785L49.673 123.35ZM62.273 147.5V145.5C53.6421 145.5 45.9805 143.253 39.227 138.782L38.123 140.45L37.0191 142.118C44.4656 147.047 52.904 149.5 62.273 149.5V147.5ZM38.123 140.45L39.2541 138.801C32.572 134.219 27.2923 127.904 23.4288 119.79L21.623 120.65L19.8173 121.51C23.9538 130.196 29.6741 137.081 36.992 142.099L38.123 140.45ZM21.623 120.65L23.4327 119.798C19.5766 111.604 17.623 102.203 17.623 91.55H15.623H13.623C13.623 102.697 15.6695 112.696 19.8134 121.502L21.623 120.65ZM15.623 91.55H17.623C17.623 80.8953 19.5773 71.6556 23.4206 63.7768L21.623 62.9L19.8255 62.0232C15.6688 70.5444 13.623 80.4047 13.623 91.55H15.623ZM21.623 62.9L23.4247 63.7683C27.2836 55.7611 32.554 49.6028 39.2214 45.2214L38.123 43.55L37.0247 41.8786C29.692 46.6972 23.9625 53.4389 19.8214 62.0317L21.623 62.9ZM38.123 43.55L39.227 45.2177C45.9805 40.7471 53.6421 38.5 62.273 38.5V36.5V34.5C52.904 34.5 44.4656 36.9529 37.0191 41.8823L38.123 43.55ZM62.273 36.5V38.5C71.0089 38.5 78.6642 40.7495 85.3082 45.2104L86.423 43.55L87.5379 41.8896C80.1819 36.9505 71.7372 34.5 62.273 34.5V36.5ZM86.423 43.55L85.3247 45.2214C91.9921 49.6028 97.2625 55.7611 101.121 63.7683L102.923 62.9L104.725 62.0317C100.584 53.4389 94.854 46.6972 87.5214 41.8786L86.423 43.55ZM102.923 62.9L101.126 63.7768C104.969 71.6556 106.923 80.8953 106.923 91.55H108.923H110.923C110.923 80.4047 108.877 70.5444 104.721 62.0232L102.923 62.9ZM108.923 91.55H106.923C106.923 102.306 104.968 111.703 101.117 119.79L102.923 120.65L104.729 121.51C108.878 112.797 110.923 102.794 110.923 91.55H108.923ZM102.923 120.65L101.117 119.79C97.2571 127.897 91.9323 134.21 85.1529 138.793L86.2731 140.45L87.3932 142.107C94.8138 137.09 100.589 130.203 104.729 121.51L102.923 120.65ZM86.2731 140.45L85.1582 138.79C78.5105 143.253 70.9041 145.5 62.273 145.5V147.5V149.5C71.642 149.5 80.0356 147.047 87.3879 142.11L86.2731 140.45ZM62.273 128.3V130.3C67.868 130.3 72.6008 128.413 76.3082 124.593L74.873 123.2L73.4379 121.807C70.5453 124.787 66.8781 126.3 62.273 126.3V128.3ZM74.873 123.2L76.3082 124.593C79.8848 120.908 82.476 116.095 84.1461 110.249L82.2231 109.7L80.3 109.151C78.7701 114.505 76.4613 118.692 73.4379 121.807L74.873 123.2ZM82.2231 109.7L84.1461 110.249C85.8034 104.449 86.623 98.1615 86.623 91.4H84.623H82.623C82.623 97.8385 81.8427 103.751 80.3 109.151L82.2231 109.7ZM84.623 91.4H86.623C86.623 84.6398 85.8037 78.4447 84.1406 72.8318L82.2231 73.4L80.3055 73.9682C81.8424 79.1553 82.623 84.9602 82.623 91.4H84.623ZM82.2231 73.4L84.1406 72.8318C82.4648 67.1759 79.8619 62.5518 76.2653 59.0642L74.873 60.5L73.4808 61.9358C76.4842 64.8482 78.7813 68.8241 80.3055 73.9682L82.2231 73.4ZM74.873 60.5L76.2653 59.0642C72.5499 55.4613 67.8308 53.7 62.273 53.7V55.7V57.7C66.9153 57.7 70.5962 59.1387 73.4808 61.9358L74.873 60.5ZM62.273 55.7V53.7C56.6968 53.7 51.9706 55.5241 48.2588 59.2358L49.673 60.65L51.0873 62.0642C53.9755 59.1759 57.6493 57.7 62.273 57.7V55.7ZM49.673 60.65L48.2808 59.2142C44.6842 62.7018 42.0813 67.3259 40.4055 72.9818L42.323 73.55L44.2406 74.1182C45.7648 68.9741 48.0619 64.9982 51.0653 62.0858L49.673 60.65ZM42.323 73.55L40.4055 72.9818C38.7431 78.5921 37.923 84.7366 37.923 91.4H39.923H41.923C41.923 85.0634 42.703 79.3079 44.2406 74.1182L42.323 73.55ZM39.923 91.4H37.923C37.923 98.2585 38.742 104.596 40.4 110.399L42.323 109.85L44.2461 109.301C42.7041 103.904 41.923 97.9415 41.923 91.4H39.923ZM42.323 109.85L40.4 110.399C42.0701 116.245 44.6613 121.058 48.2379 124.743L49.673 123.35L51.1082 121.957C48.0848 118.842 45.776 114.655 44.2461 109.301L42.323 109.85ZM49.673 123.35L48.2801 124.785C52.0755 128.469 56.7847 130.3 62.273 130.3V128.3V126.3C57.7613 126.3 54.0706 124.831 51.066 121.915L49.673 123.35ZM113.47 133.7L111.929 134.975L111.937 134.984L111.944 134.993L113.47 133.7ZM107.47 63.65L105.637 62.8495L105.633 62.8596L107.47 63.65ZM173.47 44.9L172.176 46.425L172.188 46.4355L172.201 46.4459L173.47 44.9ZM185.77 67.85V69.85H188.099L187.747 67.5474L185.77 67.85ZM162.82 67.85L160.833 68.0758L161.034 69.85H162.82V67.85ZM157.87 57.8L156.541 59.2948L156.57 59.3207L156.6 59.3455L157.87 57.8ZM131.32 63.65L133.056 64.6423L131.32 63.65ZM125.92 102.65L125.362 104.571L127.92 105.313V102.65H125.92ZM121.27 101.3L119.32 100.853L118.899 102.694L120.712 103.221L121.27 101.3ZM127.12 88.85L128.682 90.0994L127.12 88.85ZM137.62 80.75L136.812 78.9206L136.804 78.9242L136.796 78.9278L137.62 80.75ZM170.47 82.25L169.51 84.0045L169.523 84.0116L169.536 84.0184L170.47 82.25ZM182.77 94.25L181.023 95.2241L181.034 95.2442L181.046 95.264L182.77 94.25ZM182.17 130.85L180.487 129.77L180.479 129.781L180.472 129.793L182.17 130.85ZM168.07 143.15L167.211 141.344L168.07 143.15ZM157.57 125.45L158.868 126.972L158.872 126.969L157.57 125.45ZM157.42 99.65L156.144 101.19L156.168 101.21L156.192 101.229L157.42 99.65ZM131.32 99.65L132.548 101.229L132.561 101.218L132.575 101.208L131.32 99.65ZM128.47 121.7L126.777 122.766L126.801 122.803L126.826 122.838L128.47 121.7ZM135.37 127.7L134.475 129.489L134.488 129.495L134.5 129.501L135.37 127.7ZM146.47 147.5V145.5C132.742 145.5 122.347 141.077 114.995 132.407L113.47 133.7L111.944 134.993C120.193 144.723 131.798 149.5 146.47 149.5V147.5ZM113.47 133.7L115.01 132.425C107.707 123.603 103.92 111.018 103.92 94.4H101.92H99.9199C99.9199 111.582 103.833 125.197 111.929 134.975L113.47 133.7ZM101.92 94.4H103.92C103.92 82.7009 105.739 72.7329 109.307 64.4404L107.47 63.65L105.633 62.8596C101.8 71.7671 99.9199 82.2991 99.9199 94.4H101.92ZM107.47 63.65L109.303 64.4505C112.973 56.047 118.098 49.6631 124.646 45.203L123.52 43.55L122.394 41.897C115.142 46.8369 109.567 53.853 105.637 62.8495L107.47 63.65ZM123.52 43.55L124.646 45.203C131.177 40.7545 138.874 38.5 147.82 38.5V36.5V34.5C138.166 34.5 129.663 36.9455 122.394 41.897L123.52 43.55ZM147.82 36.5V38.5C157.951 38.5 166.01 41.1935 172.176 46.425L173.47 44.9L174.764 43.375C167.73 37.4065 158.689 34.5 147.82 34.5V36.5ZM173.47 44.9L172.201 46.4459C178.465 51.588 182.356 58.7653 183.793 68.1526L185.77 67.85L187.747 67.5474C186.184 57.3347 181.875 49.212 174.739 43.3541L173.47 44.9ZM185.77 67.85V65.85H162.82V67.85V69.85H185.77V67.85ZM162.82 67.85L164.807 67.6242C164.262 62.8292 162.427 58.9547 159.139 56.2545L157.87 57.8L156.6 59.3455C158.913 61.2453 160.378 64.0708 160.833 68.0758L162.82 67.85ZM157.87 57.8L159.199 56.3052C156.083 53.5357 152.189 52.2 147.67 52.2V54.2V56.2C151.351 56.2 154.257 57.2643 156.541 59.2948L157.87 57.8ZM147.67 54.2V52.2C139.658 52.2 133.542 55.7299 129.583 62.6577L131.32 63.65L133.056 64.6423C136.298 58.9701 141.082 56.2 147.67 56.2V54.2ZM131.32 63.65L129.583 62.6577C125.721 69.4175 123.92 79.595 123.92 92.9H125.92H127.92C127.92 79.805 129.719 70.4825 133.056 64.6423L131.32 63.65ZM125.92 92.9H123.92V102.65H125.92H127.92V92.9H125.92ZM125.92 102.65L126.478 100.729L121.828 99.3793L121.27 101.3L120.712 103.221L125.362 104.571L125.92 102.65ZM121.27 101.3L123.219 101.747C124.259 97.2107 126.088 93.342 128.682 90.0994L127.12 88.85L125.558 87.6006C122.552 91.358 120.481 95.7893 119.32 100.853L121.27 101.3ZM127.12 88.85L128.682 90.0994C131.279 86.853 134.523 84.346 138.444 82.5722L137.62 80.75L136.796 78.9278C132.317 80.954 128.561 83.847 125.558 87.6006L127.12 88.85ZM137.62 80.75L138.428 82.5794C142.443 80.8054 146.963 79.9 152.02 79.9V77.9V75.9C146.477 75.9 141.397 76.8946 136.812 78.9206L137.62 80.75ZM152.02 77.9V79.9C158.738 79.9 164.548 81.2895 169.51 84.0045L170.47 82.25L171.43 80.4955C165.792 77.4105 159.302 75.9 152.02 75.9V77.9ZM170.47 82.25L169.536 84.0184C174.496 86.639 178.313 90.3643 181.023 95.2241L182.77 94.25L184.517 93.2759C181.427 87.7357 177.044 83.461 171.404 80.4816L170.47 82.25ZM182.77 94.25L181.046 95.264C183.837 100.009 185.27 105.647 185.27 112.25H187.27H189.27C189.27 105.053 187.703 98.6911 184.494 93.236L182.77 94.25ZM187.27 112.25H185.27C185.27 119.017 183.654 124.832 180.487 129.77L182.17 130.85L183.853 131.93C187.486 126.268 189.27 119.683 189.27 112.25H187.27ZM182.17 130.85L180.472 129.793C177.391 134.741 172.995 138.594 167.211 141.344L168.07 143.15L168.929 144.956C175.345 141.906 180.349 137.559 183.868 131.907L182.17 130.85ZM168.07 143.15L167.211 141.344C161.434 144.09 154.539 145.5 146.47 145.5V147.5V149.5C155 149.5 162.506 148.01 168.929 144.956L168.07 143.15ZM144.82 129.8V131.8C150.324 131.8 155.055 130.224 158.868 126.972L157.57 125.45L156.272 123.928C153.285 126.476 149.516 127.8 144.82 127.8V129.8ZM157.57 125.45L158.872 126.969C162.917 123.501 164.82 118.534 164.82 112.4H162.82H160.82C160.82 117.666 159.223 121.399 156.268 123.931L157.57 125.45ZM162.82 112.4H164.82C164.82 106.253 162.855 101.344 158.648 98.0713L157.42 99.65L156.192 101.229C159.185 103.556 160.82 107.147 160.82 112.4H162.82ZM157.42 99.65L158.696 98.11C154.793 94.8763 150.025 93.3 144.52 93.3V95.3V97.3C149.214 97.3 153.047 98.6237 156.144 101.19L157.42 99.65ZM144.52 95.3V93.3C138.924 93.3 134.065 94.8705 130.065 98.0925L131.32 99.65L132.575 101.208C135.775 98.6295 139.716 97.3 144.52 97.3V95.3ZM131.32 99.65L130.092 98.0713C125.903 101.329 123.92 106.125 123.92 112.1H125.92H127.92C127.92 107.075 129.537 103.571 132.548 101.229L131.32 99.65ZM125.92 112.1H123.92C123.92 116.116 124.846 119.698 126.777 122.766L128.47 121.7L130.162 120.634C128.694 118.302 127.92 115.484 127.92 112.1H125.92ZM128.47 121.7L126.826 122.838C128.815 125.712 131.372 127.937 134.475 129.489L135.37 127.7L136.264 125.911C133.768 124.663 131.725 122.888 130.114 120.562L128.47 121.7ZM135.37 127.7L134.5 129.501C137.687 131.039 141.136 131.8 144.82 131.8V129.8V127.8C141.704 127.8 138.853 127.161 136.239 125.899L135.37 127.7Z" fill="#FF5B24" mask="url(#path-1-outside-1_34_80)"/>
</mask>
<g mask="url(#mask0_34_80)">
<path d="M201.5 11.5V155.5H-0.5V11.5H201.5Z" fill="url(#paint1_linear_34_80)" stroke="#FF5B24"/>
</g>
<defs>
<linearGradient id="paint0_linear_34_80" x1="-133" y1="76.5" x2="209.012" y2="77.4902" gradientUnits="userSpaceOnUse">
<stop stop-color="#FF5B24"/>
<stop offset="1" stop-color="#FF5B24" stop-opacity="0"/>
</linearGradient>
<linearGradient id="paint1_linear_34_80" x1="-134.658" y1="76.6361" x2="209.045" y2="77.8017" gradientUnits="userSpaceOnUse">
<stop stop-color="#FF5B24"/>
<stop offset="1" stop-color="#FF5B24" stop-opacity="0"/>
</linearGradient>
</defs>
</svg>
