<svg width="202" height="169" viewBox="0 0 202 169" fill="none" xmlns="http://www.w3.org/2000/svg">
<mask id="mask0_34_87" style="mask-type:alpha" maskUnits="userSpaceOnUse" x="21" y="34" width="161" height="116">
<mask id="path-1-outside-1_34_87" maskUnits="userSpaceOnUse" x="21" y="34" width="161" height="116" fill="black">
<rect fill="white" x="21" y="34" width="161" height="116"/>
<path d="M70.4762 147.5C61.4762 147.5 53.4262 145.15 46.3262 140.45C39.3262 135.65 33.8262 129.05 29.8262 120.65C25.8262 112.15 23.8262 102.45 23.8262 91.55C23.8262 80.65 25.8262 71.1 29.8262 62.9C33.8262 54.6 39.3262 48.15 46.3262 43.55C53.4262 38.85 61.4762 36.5 70.4762 36.5C79.5762 36.5 87.6262 38.85 94.6262 43.55C101.626 48.15 107.126 54.6 111.126 62.9C115.126 71.1 117.126 80.65 117.126 91.55C117.126 102.55 115.126 112.25 111.126 120.65C107.126 129.05 101.576 135.65 94.4762 140.45C87.4762 145.15 79.4762 147.5 70.4762 147.5ZM70.4762 128.3C75.5762 128.3 79.7762 126.6 83.0762 123.2C86.3762 119.8 88.8262 115.3 90.4262 109.7C92.0262 104.1 92.8262 98 92.8262 91.4C92.8262 84.8 92.0262 78.8 90.4262 73.4C88.8262 68 86.3762 63.7 83.0762 60.5C79.7762 57.3 75.5762 55.7 70.4762 55.7C65.3762 55.7 61.1762 57.35 57.8762 60.65C54.5762 63.85 52.1262 68.15 50.5262 73.55C48.9262 78.95 48.1262 84.9 48.1262 91.4C48.1262 98.1 48.9262 104.25 50.5262 109.85C52.1262 115.45 54.5762 119.95 57.8762 123.35C61.2762 126.65 65.4762 128.3 70.4762 128.3ZM118.745 146C120.245 128.9 124.445 112.45 131.345 96.65C138.345 80.75 147.195 66.15 157.895 52.85V55.7H99.9945V38H179.645V54.5C172.845 64.2 166.895 73.95 161.795 83.75C156.695 93.55 152.595 103.6 149.495 113.9C146.395 124.1 144.395 134.8 143.495 146H118.745Z"/>
</mask>
<path d="M70.4762 147.5C61.4762 147.5 53.4262 145.15 46.3262 140.45C39.3262 135.65 33.8262 129.05 29.8262 120.65C25.8262 112.15 23.8262 102.45 23.8262 91.55C23.8262 80.65 25.8262 71.1 29.8262 62.9C33.8262 54.6 39.3262 48.15 46.3262 43.55C53.4262 38.85 61.4762 36.5 70.4762 36.5C79.5762 36.5 87.6262 38.85 94.6262 43.55C101.626 48.15 107.126 54.6 111.126 62.9C115.126 71.1 117.126 80.65 117.126 91.55C117.126 102.55 115.126 112.25 111.126 120.65C107.126 129.05 101.576 135.65 94.4762 140.45C87.4762 145.15 79.4762 147.5 70.4762 147.5ZM70.4762 128.3C75.5762 128.3 79.7762 126.6 83.0762 123.2C86.3762 119.8 88.8262 115.3 90.4262 109.7C92.0262 104.1 92.8262 98 92.8262 91.4C92.8262 84.8 92.0262 78.8 90.4262 73.4C88.8262 68 86.3762 63.7 83.0762 60.5C79.7762 57.3 75.5762 55.7 70.4762 55.7C65.3762 55.7 61.1762 57.35 57.8762 60.65C54.5762 63.85 52.1262 68.15 50.5262 73.55C48.9262 78.95 48.1262 84.9 48.1262 91.4C48.1262 98.1 48.9262 104.25 50.5262 109.85C52.1262 115.45 54.5762 119.95 57.8762 123.35C61.2762 126.65 65.4762 128.3 70.4762 128.3ZM118.745 146C120.245 128.9 124.445 112.45 131.345 96.65C138.345 80.75 147.195 66.15 157.895 52.85V55.7H99.9945V38H179.645V54.5C172.845 64.2 166.895 73.95 161.795 83.75C156.695 93.55 152.595 103.6 149.495 113.9C146.395 124.1 144.395 134.8 143.495 146H118.745Z" fill="url(#paint0_linear_34_87)"/>
<path d="M46.3262 140.45L45.1951 142.099L45.2086 142.109L45.2222 142.118L46.3262 140.45ZM29.8262 120.65L28.0165 121.502L28.0205 121.51L29.8262 120.65ZM29.8262 62.9L31.6237 63.7769L31.6279 63.7683L29.8262 62.9ZM46.3262 43.55L47.4245 45.2214L47.4301 45.2177L46.3262 43.55ZM94.6262 43.55L93.5113 45.2104L93.5195 45.216L93.5278 45.2214L94.6262 43.55ZM111.126 62.9L109.324 63.7683L109.329 63.7768L111.126 62.9ZM111.126 120.65L112.932 121.51L111.126 120.65ZM94.4762 140.45L95.591 142.11L95.5963 142.107L94.4762 140.45ZM83.0762 123.2L81.641 121.807L83.0762 123.2ZM90.4262 109.7L92.3492 110.249L90.4262 109.7ZM90.4262 73.4L92.3438 72.8318L90.4262 73.4ZM83.0762 60.5L81.6839 61.9358V61.9358L83.0762 60.5ZM57.8762 60.65L59.2685 62.0858L59.2795 62.0751L59.2904 62.0642L57.8762 60.65ZM57.8762 123.35L56.441 124.743L56.4618 124.764L56.4832 124.785L57.8762 123.35ZM70.4762 147.5V145.5C61.8453 145.5 54.1837 143.253 47.4301 138.782L46.3262 140.45L45.2222 142.118C52.6687 147.047 61.1071 149.5 70.4762 149.5V147.5ZM46.3262 140.45L47.4572 138.801C40.7752 134.219 35.4954 127.904 31.6319 119.79L29.8262 120.65L28.0205 121.51C32.1569 130.196 37.8772 137.081 45.1951 142.099L46.3262 140.45ZM29.8262 120.65L31.6358 119.798C27.7798 111.604 25.8262 102.203 25.8262 91.55H23.8262H21.8262C21.8262 102.697 23.8726 112.696 28.0165 121.502L29.8262 120.65ZM23.8262 91.55H25.8262C25.8262 80.8953 27.7804 71.6556 31.6237 63.7768L29.8262 62.9L28.0286 62.0232C23.8719 70.5444 21.8262 80.4047 21.8262 91.55H23.8262ZM29.8262 62.9L31.6279 63.7683C35.4867 55.7611 40.7572 49.6028 47.4245 45.2214L46.3262 43.55L45.2278 41.8786C37.8952 46.6972 32.1656 53.4389 28.0245 62.0317L29.8262 62.9ZM46.3262 43.55L47.4301 45.2177C54.1837 40.7471 61.8453 38.5 70.4762 38.5V36.5V34.5C61.1071 34.5 52.6687 36.9529 45.2222 41.8823L46.3262 43.55ZM70.4762 36.5V38.5C79.2121 38.5 86.8673 40.7495 93.5113 45.2104L94.6262 43.55L95.741 41.8896C88.385 36.9505 79.9403 34.5 70.4762 34.5V36.5ZM94.6262 43.55L93.5278 45.2214C100.195 49.6028 105.466 55.7611 109.324 63.7683L111.126 62.9L112.928 62.0317C108.787 53.4389 103.057 46.6972 95.7245 41.8786L94.6262 43.55ZM111.126 62.9L109.329 63.7768C113.172 71.6556 115.126 80.8953 115.126 91.55H117.126H119.126C119.126 80.4047 117.08 70.5444 112.924 62.0232L111.126 62.9ZM117.126 91.55H115.126C115.126 102.306 113.171 111.703 109.32 119.79L111.126 120.65L112.932 121.51C117.081 112.797 119.126 102.794 119.126 91.55H117.126ZM111.126 120.65L109.32 119.79C105.46 127.897 100.135 134.21 93.356 138.793L94.4762 140.45L95.5963 142.107C103.017 137.09 108.792 130.203 112.932 121.51L111.126 120.65ZM94.4762 140.45L93.3613 138.79C86.7136 143.253 79.1072 145.5 70.4762 145.5V147.5V149.5C79.8451 149.5 88.2388 147.047 95.591 142.11L94.4762 140.45ZM70.4762 128.3V130.3C76.0711 130.3 80.8039 128.413 84.5113 124.593L83.0762 123.2L81.641 121.807C78.7485 124.787 75.0813 126.3 70.4762 126.3V128.3ZM83.0762 123.2L84.5113 124.593C88.0879 120.908 90.6791 116.095 92.3492 110.249L90.4262 109.7L88.5031 109.151C86.9732 114.505 84.6644 118.692 81.641 121.807L83.0762 123.2ZM90.4262 109.7L92.3492 110.249C94.0065 104.449 94.8262 98.1615 94.8262 91.4H92.8262H90.8262C90.8262 97.8385 90.0458 103.751 88.5031 109.151L90.4262 109.7ZM92.8262 91.4H94.8262C94.8262 84.6398 94.0069 78.4447 92.3438 72.8318L90.4262 73.4L88.5086 73.9682C90.0455 79.1553 90.8262 84.9602 90.8262 91.4H92.8262ZM90.4262 73.4L92.3438 72.8318C90.668 67.1759 88.065 62.5518 84.4685 59.0642L83.0762 60.5L81.6839 61.9358C84.6873 64.8482 86.9844 68.8241 88.5086 73.9682L90.4262 73.4ZM83.0762 60.5L84.4685 59.0642C80.753 55.4613 76.0339 53.7 70.4762 53.7V55.7V57.7C75.1185 57.7 78.7993 59.1387 81.6839 61.9358L83.0762 60.5ZM70.4762 55.7V53.7C64.8999 53.7 60.1737 55.5241 56.462 59.2358L57.8762 60.65L59.2904 62.0642C62.1787 59.1759 65.8524 57.7 70.4762 57.7V55.7ZM57.8762 60.65L56.4839 59.2142C52.8873 62.7018 50.2844 67.3259 48.6086 72.9818L50.5262 73.55L52.4438 74.1182C53.9679 68.9741 56.265 64.9982 59.2685 62.0858L57.8762 60.65ZM50.5262 73.55L48.6086 72.9818C46.9463 78.5921 46.1262 84.7366 46.1262 91.4H48.1262H50.1262C50.1262 85.0634 50.9061 79.3079 52.4438 74.1182L50.5262 73.55ZM48.1262 91.4H46.1262C46.1262 98.2585 46.9451 104.596 48.6031 110.399L50.5262 109.85L52.4492 109.301C50.9073 103.904 50.1262 97.9415 50.1262 91.4H48.1262ZM50.5262 109.85L48.6031 110.399C50.2732 116.245 52.8644 121.058 56.441 124.743L57.8762 123.35L59.3113 121.957C56.2879 118.842 53.9791 114.655 52.4492 109.301L50.5262 109.85ZM57.8762 123.35L56.4832 124.785C60.2786 128.469 64.9879 130.3 70.4762 130.3V128.3V126.3C65.9645 126.3 62.2737 124.831 59.2691 121.915L57.8762 123.35ZM118.745 146L116.752 145.825L116.561 148H118.745V146ZM131.345 96.65L129.514 95.8441L129.512 95.8496L131.345 96.65ZM157.895 52.85H159.895V47.1734L156.336 51.5963L157.895 52.85ZM157.895 55.7V57.7H159.895V55.7H157.895ZM99.9945 55.7H97.9945V57.7H99.9945V55.7ZM99.9945 38V36H97.9945V38H99.9945ZM179.645 38H181.645V36H179.645V38ZM179.645 54.5L181.282 55.6481L181.645 55.1312V54.5H179.645ZM161.795 83.75L160.02 82.8267L161.795 83.75ZM149.495 113.9L151.408 114.482L151.41 114.476L149.495 113.9ZM143.495 146V148H145.34L145.488 146.16L143.495 146ZM118.745 146L120.737 146.175C122.218 129.292 126.364 113.053 133.177 97.4504L131.345 96.65L129.512 95.8496C122.525 111.847 118.271 128.508 116.752 145.825L118.745 146ZM131.345 96.65L133.175 97.4559C140.106 81.7135 148.865 67.2646 159.453 54.1037L157.895 52.85L156.336 51.5963C145.524 65.0354 136.583 79.7864 129.514 95.8441L131.345 96.65ZM157.895 52.85H155.895V55.7H157.895H159.895V52.85H157.895ZM157.895 55.7V53.7H99.9945V55.7V57.7H157.895V55.7ZM99.9945 55.7H101.995V38H99.9945H97.9945V55.7H99.9945ZM99.9945 38V40H179.645V38V36H99.9945V38ZM179.645 38H177.645V54.5H179.645H181.645V38H179.645ZM179.645 54.5L178.007 53.3519C171.16 63.1187 165.164 72.9435 160.02 82.8267L161.795 83.75L163.569 84.6733C168.625 74.9565 174.529 65.2813 181.282 55.6481L179.645 54.5ZM161.795 83.75L160.02 82.8267C154.864 92.7347 150.716 102.901 147.579 113.324L149.495 113.9L151.41 114.476C154.473 104.299 158.525 94.3653 163.569 84.6733L161.795 83.75ZM149.495 113.9L147.581 113.318C144.437 123.663 142.412 134.505 141.501 145.84L143.495 146L145.488 146.16C146.377 135.095 148.352 124.537 151.408 114.482L149.495 113.9ZM143.495 146V144H118.745V146V148H143.495V146Z" fill="#FF5B24" mask="url(#path-1-outside-1_34_87)"/>
</mask>
<g mask="url(#mask0_34_87)">
<path d="M201.5 11.5V155.5H-0.5V11.5H201.5Z" fill="url(#paint1_linear_34_87)" stroke="#FF5B24"/>
</g>
<defs>
<linearGradient id="paint0_linear_34_87" x1="-133" y1="76.5" x2="209.012" y2="77.4902" gradientUnits="userSpaceOnUse">
<stop stop-color="#FF5B24"/>
<stop offset="1" stop-color="#FF5B24" stop-opacity="0"/>
</linearGradient>
<linearGradient id="paint1_linear_34_87" x1="-134.658" y1="76.6361" x2="209.045" y2="77.8017" gradientUnits="userSpaceOnUse">
<stop stop-color="#FF5B24"/>
<stop offset="1" stop-color="#FF5B24" stop-opacity="0"/>
</linearGradient>
</defs>
</svg>
