<svg width="25" height="25" viewBox="0 0 25 25" fill="none" xmlns="http://www.w3.org/2000/svg">
<g clip-path="url(#clip0_17_115)">
<path fill-rule="evenodd" clip-rule="evenodd" d="M18.4393 0.499991C18.5327 0.35014 18.6683 0.231313 18.8291 0.158528C18.99 0.0857421 19.1687 0.0622648 19.3429 0.0910626L23.934 0.857134C24.1674 0.89607 24.3758 1.02609 24.5135 1.21862C24.6511 1.41116 24.7066 1.65045 24.6679 1.88392L23.9036 6.47678C23.8745 6.65088 23.7943 6.81243 23.6734 6.94101C23.5524 7.06959 23.3961 7.15943 23.2241 7.19918C23.0521 7.23893 22.8722 7.22681 22.7071 7.16434C22.542 7.10187 22.3991 6.99185 22.2965 6.84821L21.0572 5.11606L14.6751 9.19463C14.4029 9.36879 14.0769 9.43868 13.7573 9.39143C13.4377 9.34417 13.1459 9.18295 12.9358 8.93749L9.37684 4.77678L2.72149 8.19642C2.40559 8.35886 2.03811 8.38917 1.69987 8.28067C1.36164 8.17216 1.08036 7.93374 0.917914 7.61785C0.755469 7.30196 0.725165 6.93447 0.833668 6.59624C0.942171 6.258 1.18059 5.97672 1.49649 5.81428L9.0947 1.90892C9.36295 1.77111 9.66987 1.72787 9.96576 1.7862C10.2616 1.84454 10.5292 2.00103 10.7251 2.23035L14.2143 6.31071L19.5001 2.93213L18.4697 1.49106C18.3673 1.34736 18.3097 1.17652 18.3043 1.00013C18.2989 0.823734 18.3459 0.649694 18.4393 0.499991ZM6.75006 9.26785L1.56791 12.2321C1.36319 12.3491 1.19297 12.518 1.07445 12.7218C0.955926 12.9256 0.893305 13.1571 0.892914 13.3928V23.6607C0.892914 24.4 1.49291 25 2.2322 25H6.75006V9.26785ZM8.9822 25H15.5322V12.8357L12.5876 14.3071L9.6447 9.15713C9.49575 8.8955 9.26299 8.69167 8.98399 8.57856L8.9822 25ZM22.7679 25H17.7643V11.7196L22.1697 9.51606C22.3739 9.41413 22.6007 9.36606 22.8287 9.37642C23.0567 9.38678 23.2782 9.45522 23.4723 9.57526C23.6664 9.6953 23.8267 9.86294 23.9378 10.0623C24.0489 10.2616 24.1072 10.4861 24.1072 10.7143V23.6607C24.1072 24.0159 23.9661 24.3566 23.7149 24.6077C23.4638 24.8589 23.1231 25 22.7679 25Z" fill="url(#paint0_linear_17_115)"/>
</g>
<defs>
<linearGradient id="paint0_linear_17_115" x1="12.7248" y1="0.0791016" x2="12.7248" y2="25" gradientUnits="userSpaceOnUse">
<stop stop-color="#F4A027"/>
<stop offset="1" stop-color="#FF5B24"/>
</linearGradient>
<clipPath id="clip0_17_115">
<rect width="25" height="25" fill="white"/>
</clipPath>
</defs>
</svg>
