<svg width="42" height="42" viewBox="0 0 42 42" fill="none" xmlns="http://www.w3.org/2000/svg">
<path d="M8.89154 5.67417L8.51508 36.1024C8.51223 36.4105 8.59347 36.7135 8.75003 36.9789C8.90659 37.2442 9.13256 37.4618 9.40361 37.6083C9.67465 37.7548 9.98052 37.8246 10.2883 37.8102C10.596 37.7957 10.894 37.6977 11.1502 37.5265L33.3144 22.5842C34.2333 21.965 34.2521 20.4469 33.3488 19.8034L11.5611 4.31742C11.3098 4.13818 11.0142 4.03124 10.7064 4.00821C10.3985 3.98518 10.0903 4.04695 9.81514 4.1868C9.53997 4.32665 9.30839 4.53923 9.14556 4.80146C8.98273 5.06368 8.89487 5.36552 8.89154 5.67417Z" fill="#686260"/>
</svg>
