<svg width="29" height="29" viewBox="0 0 29 29" fill="none" xmlns="http://www.w3.org/2000/svg">
<g clip-path="url(#clip0_40_193)">
<path fill-rule="evenodd" clip-rule="evenodd" d="M14.5 29C16.4042 29 18.2897 28.6249 20.0489 27.8963C21.8081 27.1676 23.4066 26.0995 24.753 24.753C26.0995 23.4066 27.1676 21.8081 27.8963 20.0489C28.6249 18.2897 29 16.4042 29 14.5C29 12.5958 28.6249 10.7103 27.8963 8.95109C27.1676 7.19187 26.0995 5.5934 24.753 4.24695C23.4066 2.9005 21.8081 1.83244 20.0489 1.10375C18.2897 0.375053 16.4042 -2.83743e-08 14.5 0C10.6544 5.73045e-08 6.96623 1.52767 4.24695 4.24695C1.52767 6.96623 0 10.6544 0 14.5C0 18.3456 1.52767 22.0338 4.24695 24.753C6.96623 27.4723 10.6544 29 14.5 29ZM14.1262 20.3644L22.1818 10.6978L19.7071 8.63556L12.7793 16.9473L9.19461 13.3609L6.9165 15.6391L11.7498 20.4724L12.9968 21.7194L14.1262 20.3644Z" fill="#FDB932"/>
</g>
<defs>
<clipPath id="clip0_40_193">
<rect width="29" height="29" fill="white"/>
</clipPath>
</defs>
</svg>
