<svg width="50" height="50" viewBox="0 0 50 50" fill="none" xmlns="http://www.w3.org/2000/svg">
<g clip-path="url(#clip0_34_152)">
<path d="M34.054 30.8695C36.2702 29.6328 35.983 24.8677 33.4146 20.2185C32.3128 18.2167 30.9581 16.5957 29.6035 15.4624C27.9836 16.6691 26.0214 17.3236 24.0042 17.33C21.984 17.3255 20.0184 16.671 18.396 15.4624C17.0413 16.5957 15.6903 18.2185 14.5849 20.2185C12.0147 24.8658 11.7311 29.6328 13.9527 30.8695C14.9425 31.4352 15.9865 31.0109 17.063 29.9701C16.8614 31.0914 16.7604 32.2286 16.7614 33.3681C16.7614 38.6954 18.8204 43 21.3545 43C22.8826 43 23.6394 41.4316 24.0024 39.0326C24.3637 41.4152 25.1223 43 26.6395 43C29.1628 43 31.2381 38.6936 31.2381 33.3681C31.2381 32.1714 31.1261 31.029 30.9346 29.9719C32.0184 31.0145 33.0587 31.4461 34.0521 30.8731L34.054 30.8695ZM24.0006 15.5168C25.0254 15.5322 26.043 15.3428 26.9942 14.9596C27.9453 14.5765 28.8111 14.0072 29.5411 13.285C30.2711 12.5628 30.8507 11.7021 31.2462 10.7529C31.6416 9.80367 31.8451 8.78499 31.8448 7.75611C31.8444 6.72723 31.6402 5.70869 31.2441 4.75978C30.8479 3.81087 30.2677 2.95053 29.5372 2.22884C28.8067 1.50714 27.9406 0.938512 26.9891 0.556032C26.0377 0.173552 25.02 -0.0151366 23.9952 0.000948259C21.9661 0.032797 20.0309 0.864525 18.6075 2.31653C17.184 3.76854 16.3866 5.72432 16.3873 7.76155C16.388 9.79879 17.1868 11.754 18.6113 13.205C20.0357 14.656 21.9715 15.4864 24.0006 15.5168ZM39.5231 20.4379C41.1736 20.3895 42.7404 19.6972 43.8908 18.5081C45.0412 17.319 45.6847 15.7266 45.6847 14.0689C45.6847 12.4113 45.0412 10.8189 43.8908 9.62976C42.7404 8.44062 41.1736 7.74837 39.5231 7.69994C37.84 7.70018 36.226 8.37162 35.036 9.56655C33.8461 10.7615 33.1777 12.382 33.1779 14.0717C33.1782 15.7613 33.847 17.3816 35.0373 18.5762C36.2276 19.7708 37.8419 20.4418 39.5249 20.4415L39.5231 20.4379ZM47.2537 24.3001C46.347 22.6537 45.238 21.3228 44.1253 20.3926C42.7944 21.3825 41.1831 21.9194 39.5267 21.9248C38.1613 21.9248 36.8897 21.5494 35.7771 20.9275C36.6729 22.9094 37.2274 24.9166 37.3304 26.7117C37.5002 29.4606 36.644 31.4986 34.9318 32.4506C34.565 32.6536 34.1659 32.791 33.7523 32.8568C33.6494 33.5676 33.5789 34.3074 33.5789 35.087C33.5789 39.4624 35.2677 42.9964 37.3503 42.9964C38.6038 42.9964 39.2287 41.709 39.5249 39.7398C39.8193 41.6981 40.4425 42.9964 41.6924 42.9964C43.7605 42.9964 45.4673 39.4606 45.4673 35.0907C45.4673 34.1061 45.3716 33.1686 45.2145 32.2983C46.1031 33.1559 46.9593 33.5095 47.7757 33.0381C49.5945 32.0227 49.3597 28.1097 47.2519 24.2983L47.2537 24.3001ZM8.47812 20.4379C9.73257 20.4372 10.9586 20.0631 12.0013 19.3629C13.044 18.6628 13.8565 17.668 14.3361 16.5043C14.8156 15.3406 14.9407 14.0603 14.6956 12.8253C14.4504 11.5902 13.846 10.4559 12.9587 9.56564C12.0714 8.67541 10.9411 8.06927 9.71071 7.82385C8.48031 7.57843 7.20506 7.70475 6.04616 8.18685C4.88727 8.66894 3.89678 9.48515 3.19992 10.5323C2.50306 11.5794 2.13112 12.8105 2.13112 14.0698C2.1316 15.7596 2.80045 17.38 3.99064 18.5748C5.18083 19.7696 6.79494 20.4411 8.47812 20.4415V20.4379ZM13.0568 32.4452C10.1814 30.8404 9.91766 26.0553 12.2332 20.9239C11.0887 21.5763 9.79606 21.9217 8.47992 21.9266C6.75319 21.9266 5.17096 21.3463 3.87411 20.3926C2.76329 21.321 1.65609 22.6519 0.745764 24.2965C-1.36208 28.1115 -1.59327 32.0245 0.227384 33.0363C1.04017 33.5041 1.89812 33.1541 2.78135 32.3001C2.62065 33.221 2.53908 34.154 2.53752 35.0889C2.53752 39.4624 4.22632 42.9946 6.30887 42.9946C7.56237 42.9946 8.18732 41.7072 8.48354 39.7398C8.78156 41.6981 9.4047 42.9964 10.651 42.9964C12.7227 42.9964 14.4259 39.4606 14.4259 35.0907C14.4259 34.3055 14.3537 33.5639 14.2507 32.8531C13.8325 32.7877 13.429 32.649 13.0586 32.4433L13.0568 32.4452Z" fill="url(#paint0_linear_34_152)"/>
</g>
<defs>
<linearGradient id="paint0_linear_34_152" x1="24" y1="0" x2="24" y2="43" gradientUnits="userSpaceOnUse">
<stop stop-color="#F4A027"/>
<stop offset="1" stop-color="#FF5B24"/>
</linearGradient>
<clipPath id="clip0_34_152">
<rect width="50" height="50" fill="white"/>
</clipPath>
</defs>
</svg>
