<svg width="50" height="50" viewBox="0 0 50 50" fill="none" xmlns="http://www.w3.org/2000/svg">
<g clip-path="url(#clip0_34_156)">
<path fill-rule="evenodd" clip-rule="evenodd" d="M24.9893 0.03238C22.5644 -0.00149546 20.1569 0.446867 17.9067 1.35142C15.6565 2.25597 13.6086 3.59867 11.8818 5.30151C10.155 7.00435 8.78379 9.03337 7.8479 11.2707C6.91201 13.508 6.43006 15.909 6.43006 18.3342C6.43006 20.7593 6.91201 23.1603 7.8479 25.3976C8.78379 27.635 10.155 29.664 11.8818 31.3668C13.6086 33.0697 15.6565 34.4124 17.9067 35.3169C20.1569 36.2215 22.5644 36.6698 24.9893 36.636C29.8437 36.636 34.4993 34.7075 37.9319 31.275C41.3645 27.8424 43.2929 23.1868 43.2929 18.3324C43.2929 13.478 41.3645 8.82239 37.9319 5.3898C34.4993 1.95722 29.8437 0.03238 24.9893 0.03238ZM25.7143 8.68595L28.1536 13.5931C28.2066 13.7178 28.2923 13.8258 28.4017 13.9056C28.5111 13.9855 28.6401 14.0342 28.775 14.0467L34.1893 14.8681C34.3443 14.8879 34.4905 14.9516 34.6106 15.0516C34.7308 15.1515 34.8199 15.2837 34.8675 15.4326C34.9151 15.5815 34.9193 15.7409 34.8795 15.892C34.8397 16.0432 34.7576 16.1798 34.6429 16.286L30.65 20.086C30.59 20.1993 30.5586 20.3256 30.5586 20.4538C30.5586 20.5821 30.59 20.7083 30.65 20.8217L31.4143 26.2074C31.4465 26.3625 31.4331 26.5235 31.3758 26.6712C31.3185 26.8188 31.2198 26.9468 31.0915 27.0396C30.9632 27.1325 30.8108 27.1862 30.6526 27.1945C30.4944 27.2027 30.3373 27.165 30.2 27.086L25.3786 24.536C25.2535 24.4792 25.1177 24.4499 24.9804 24.4499C24.843 24.4499 24.7073 24.4792 24.5822 24.536L19.7607 27.086C19.6235 27.165 19.4663 27.2027 19.3082 27.1945C19.15 27.1862 18.9976 27.1325 18.8693 27.0396C18.7409 26.9468 18.6422 26.8188 18.5849 26.6712C18.5277 26.5235 18.5143 26.3625 18.5464 26.2074L19.45 20.8217C19.4894 20.6968 19.4969 20.5642 19.472 20.4357C19.447 20.3072 19.3904 20.187 19.3072 20.086L15.3107 16.2574C15.2034 16.1502 15.1278 16.0154 15.0924 15.8679C15.057 15.7204 15.0631 15.566 15.1101 15.4218C15.157 15.2775 15.243 15.1491 15.3585 15.0508C15.474 14.9524 15.6144 14.8879 15.7643 14.8645L21.1822 14.0752C21.317 14.0628 21.446 14.0141 21.5555 13.9342C21.6649 13.8543 21.7506 13.7463 21.8036 13.6217L24.2429 8.71452C24.3078 8.57524 24.4105 8.45697 24.5393 8.37315C24.6681 8.28932 24.8178 8.24331 24.9715 8.24033C25.1251 8.23735 25.2765 8.27754 25.4084 8.35631C25.5404 8.43508 25.6476 8.54929 25.7179 8.68595H25.7143ZM43.9286 30.9645C40.8469 35.5736 36.195 38.9055 30.8393 40.3395L35.8822 49.0752C36.0586 49.3812 36.3217 49.6279 36.6384 49.7843C36.955 49.9406 37.3109 49.9996 37.661 49.9537C38.0112 49.9079 38.3399 49.7592 38.6055 49.5266C38.8712 49.2939 39.0619 48.9877 39.1536 48.6467L40.975 41.8645L47.7536 43.6824C48.0947 43.7734 48.455 43.7613 48.7892 43.6476C49.1234 43.5339 49.4164 43.3237 49.6312 43.0436C49.846 42.7634 49.9729 42.4259 49.996 42.0737C50.019 41.7214 49.9372 41.3703 49.7607 41.0645L43.9286 30.9645ZM19.1572 40.3431C13.7982 38.9202 9.14188 35.5921 6.06073 30.9824L0.2393 41.0645C0.0628637 41.3703 -0.0189978 41.7214 0.00405784 42.0737C0.0271134 42.4259 0.154052 42.7634 0.368836 43.0436C0.583621 43.3237 0.876615 43.5339 1.2108 43.6476C1.54499 43.7613 1.90538 43.7734 2.24644 43.6824L9.02859 41.8645L10.8464 48.6467C10.9381 48.9877 11.1288 49.2939 11.3945 49.5266C11.6602 49.7592 11.9889 49.9079 12.339 49.9537C12.6891 49.9996 13.045 49.9406 13.3617 49.7843C13.6783 49.6279 13.9415 49.3812 14.1179 49.0752L19.1572 40.3431Z" fill="url(#paint0_linear_34_156)"/>
</g>
<defs>
<linearGradient id="paint0_linear_34_156" x1="25" y1="0.0288086" x2="25" y2="49.9689" gradientUnits="userSpaceOnUse">
<stop stop-color="#F4A027"/>
<stop offset="1" stop-color="#FF5B24"/>
</linearGradient>
<clipPath id="clip0_34_156">
<rect width="50" height="50" fill="white"/>
</clipPath>
</defs>
</svg>
