<svg width="30" height="30" viewBox="0 0 30 30" fill="none" xmlns="http://www.w3.org/2000/svg">
<path d="M22.875 0C23.4167 0 23.9531 0.106696 24.4536 0.313997C24.954 0.521298 25.4088 0.825143 25.7918 1.20818C26.1749 1.59123 26.4787 2.04596 26.686 2.54643C26.8933 3.0469 27 3.5833 27 4.125V25.875C27 26.4167 26.8933 26.9531 26.686 27.4536C26.4787 27.954 26.1749 28.4088 25.7918 28.7918C25.4088 29.1749 24.954 29.4787 24.4536 29.686C23.9531 29.8933 23.4167 30 22.875 30H7.125C6.58317 30 6.04665 29.8933 5.54608 29.6859C5.04552 29.4785 4.59072 29.1745 4.20765 28.7913C3.82459 28.4081 3.52078 27.9532 3.31357 27.4525C3.10635 26.9519 2.9998 26.4153 3 25.8735V4.125C3 3.03098 3.4346 1.98177 4.20818 1.20818C4.98177 0.434597 6.03098 0 7.125 0H7.5615V12.2505C7.5615 13.3725 8.7465 13.7715 9.54 13.3605L9.675 13.278L12.8145 11.4825L16.0245 13.3275C16.6935 13.7895 17.916 13.4775 18.0495 12.4425L18.0615 12.2505V0H22.875ZM15.8115 0V10.614L13.38 9.216C13.1916 9.13345 12.9872 9.0936 12.7816 9.09931C12.5759 9.10501 12.3741 9.15613 12.1905 9.249L12.03 9.3435L9.8115 10.6125V0H15.8115Z" fill="url(#paint0_linear_30_27)"/>
<defs>
<linearGradient id="paint0_linear_30_27" x1="15" y1="0" x2="15" y2="30" gradientUnits="userSpaceOnUse">
<stop stop-color="#F4A027"/>
<stop offset="1" stop-color="#FF5B24"/>
</linearGradient>
</defs>
</svg>
