<svg width="30" height="30" viewBox="0 0 30 30" fill="none" xmlns="http://www.w3.org/2000/svg">
<path d="M27.2747 6.17123C27.1778 6.09374 27.0618 6.04395 26.939 6.02708C26.8163 6.01021 26.6913 6.02689 26.5772 6.07537L15.4757 10.9067C14.9931 11.1181 14.3886 11.2186 13.768 11.2186C12.9026 11.222 12.0074 11.0199 11.3834 10.745C11.1931 10.6647 11.012 10.564 10.8432 10.4447C10.89 10.4216 10.9455 10.397 11.0099 10.3708L21.1069 5.97719L22.6124 6.62399V4.73326C22.6142 4.59849 22.586 4.46502 22.5297 4.34269C22.4734 4.22035 22.3905 4.11227 22.2871 4.0264C22.191 3.9482 22.0754 3.89793 21.9528 3.88103C21.8302 3.86414 21.7054 3.88125 21.5919 3.93054L10.4904 8.76189C10.148 8.90049 9.85376 9.07143 9.60553 9.31976C9.3184 9.60499 9.15521 9.9928 9.15159 10.3985C9.15159 10.4101 9.15504 10.4297 9.15504 10.4297V27.4428L9.15274 27.4659L9.15618 27.4775V27.496H9.15848C9.18147 28.0908 9.48026 28.4696 9.76527 28.7376C10.6617 29.5322 12.1671 29.9769 13.7691 30C14.5276 30 15.2976 29.8845 16.0101 29.5773L27.115 24.7448C27.408 24.6177 27.6 24.3024 27.6 23.9455V6.87809C27.6018 6.74332 27.5736 6.60985 27.5173 6.48752C27.461 6.36518 27.3781 6.2571 27.2747 6.17123ZM20.2335 2.93724C20.2139 2.68314 20.1094 2.44059 19.9232 2.29506C19.8262 2.21757 19.7103 2.16777 19.5875 2.1509C19.4647 2.13403 19.3397 2.15072 19.2256 2.1992L8.12419 7.02824C7.64152 7.23845 7.03588 7.34009 6.41645 7.34009C5.55109 7.3424 4.65585 7.14028 4.03183 6.86423C3.84168 6.78465 3.66059 6.68475 3.4917 6.56624C3.53843 6.54314 3.59398 6.5185 3.65833 6.49232L13.7565 2.09871L15.262 2.74551V0.857088C15.2637 0.722227 15.2353 0.588699 15.1788 0.466358C15.1223 0.344017 15.0392 0.235983 14.9356 0.150229C14.8387 0.0729509 14.723 0.0232763 14.6005 0.00641021C14.4779 -0.0104559 14.3531 0.00610742 14.2392 0.0543645L3.13774 4.88688C2.79527 5.02548 2.50222 5.19526 2.25284 5.44474C1.96613 5.73016 1.80336 6.11794 1.80005 6.52351C1.80005 6.53737 1.8035 6.55585 1.8035 6.55585V23.6233H1.8058C1.82878 24.2181 2.12758 24.5969 2.41258 24.8649C3.30897 25.6595 4.81444 26.103 6.4176 26.1261C6.85296 26.1233 7.2869 26.0761 7.71277 25.9852V10.4286C7.70128 9.62006 8.02306 8.8439 8.58847 8.28488C8.98068 7.9036 9.44597 7.60652 9.95604 7.4117L20.2335 2.93724Z" fill="url(#paint0_linear_30_35)"/>
<defs>
<linearGradient id="paint0_linear_30_35" x1="14.7" y1="0" x2="14.7" y2="30" gradientUnits="userSpaceOnUse">
<stop stop-color="#F4A027"/>
<stop offset="1" stop-color="#FF5B24"/>
</linearGradient>
</defs>
</svg>
