<svg width="25" height="25" viewBox="0 0 25 25" fill="none" xmlns="http://www.w3.org/2000/svg">
<path d="M0 3V22H25V3H0ZM6.25 19.2857C6.25 18.2059 5.85491 17.1703 5.15165 16.4068C4.44839 15.6432 3.49456 15.2143 2.5 15.2143V9.78571C3.49456 9.78571 4.44839 9.35676 5.15165 8.59322C5.85491 7.82968 6.25 6.7941 6.25 5.71429H18.75C18.75 6.7941 19.1451 7.82968 19.8483 8.59322C20.5516 9.35676 21.5054 9.78571 22.5 9.78571V15.2143C21.5054 15.2143 20.5516 15.6432 19.8483 16.4068C19.1451 17.1703 18.75 18.2059 18.75 19.2857H6.25ZM12.5 8.42857C13.875 8.42857 15 10.1929 15 12.5C15 14.8071 13.875 16.5714 12.5 16.5714C11.125 16.5714 10 14.8071 10 12.5C10 10.1929 11.125 8.42857 12.5 8.42857Z" fill="url(#paint0_linear_17_103)"/>
<defs>
<linearGradient id="paint0_linear_17_103" x1="12.5" y1="3" x2="12.5" y2="22" gradientUnits="userSpaceOnUse">
<stop stop-color="#F4A027"/>
<stop offset="1" stop-color="#FF5B24"/>
</linearGradient>
</defs>
</svg>
