<svg width="25" height="25" viewBox="0 0 25 25" fill="none" xmlns="http://www.w3.org/2000/svg">
<path d="M17.0455 10.8571C18.9318 10.8571 20.4432 9.32571 20.4432 7.42857C20.4432 5.53143 18.9318 4 17.0455 4C15.1591 4 13.6364 5.53143 13.6364 7.42857C13.6364 9.32571 15.1591 10.8571 17.0455 10.8571ZM7.95455 10.8571C9.84091 10.8571 11.3523 9.32571 11.3523 7.42857C11.3523 5.53143 9.84091 4 7.95455 4C6.06818 4 4.54545 5.53143 4.54545 7.42857C4.54545 9.32571 6.06818 10.8571 7.95455 10.8571ZM7.95455 13.1429C5.30682 13.1429 0 14.48 0 17.1429V20H15.9091V17.1429C15.9091 14.48 10.6023 13.1429 7.95455 13.1429ZM17.0455 13.1429C16.7159 13.1429 16.3409 13.1657 15.9432 13.2C17.2614 14.16 18.1818 15.4514 18.1818 17.1429V20H25V17.1429C25 14.48 19.6932 13.1429 17.0455 13.1429Z" fill="url(#paint0_linear_17_107)"/>
<defs>
<linearGradient id="paint0_linear_17_107" x1="12.5" y1="4" x2="12.5" y2="20" gradientUnits="userSpaceOnUse">
<stop stop-color="#F4A027"/>
<stop offset="1" stop-color="#FF5B24"/>
</linearGradient>
</defs>
</svg>
