<svg width="50" height="50" viewBox="0 0 50 50" fill="none" xmlns="http://www.w3.org/2000/svg">
<path d="M22.7 17.8948C20.5319 17.3416 18.6424 16.0259 17.3856 14.1944C16.1289 12.363 15.5912 10.1414 15.8733 7.94615C16.1555 5.75092 17.2381 3.73273 18.9183 2.26989C20.5984 0.807057 22.7608 0 25 0C27.2392 0 29.4016 0.807057 31.0817 2.26989C32.7619 3.73273 33.8445 5.75092 34.1267 7.94615C34.4088 10.1414 33.8711 12.363 32.6144 14.1944C31.3576 16.0259 29.4681 17.3416 27.3 17.8948V22.7271H36.5C37.72 22.7271 38.89 23.206 39.7527 24.0585C40.6153 24.911 41.1 26.0673 41.1 27.2729V32.1052C43.2681 32.6584 45.1576 33.9741 46.4144 35.8056C47.6711 37.637 48.2088 39.8586 47.9267 42.0538C47.6445 44.2491 46.5619 46.2673 44.8817 47.7301C43.2016 49.1929 41.0392 50 38.8 50C36.5608 50 34.3984 49.1929 32.7183 47.7301C31.0381 46.2673 29.9555 44.2491 29.6733 42.0538C29.3912 39.8586 29.9289 37.637 31.1856 35.8056C32.4424 33.9741 34.3319 32.6584 36.5 32.1052V27.2729H13.5V32.1052C15.6681 32.6584 17.5576 33.9741 18.8144 35.8056C20.0711 37.637 20.6088 39.8586 20.3267 42.0538C20.0445 44.2491 18.9619 46.2673 17.2817 47.7301C15.6016 49.1929 13.4392 50 11.2 50C8.9608 50 6.79845 49.1929 5.11828 47.7301C3.43812 46.2673 2.3555 44.2491 2.07335 42.0538C1.7912 39.8586 2.32889 37.637 3.58564 35.8056C4.84238 33.9741 6.7319 32.6584 8.90002 32.1052V27.2729C8.90002 26.0673 9.38466 24.911 10.2473 24.0585C11.11 23.206 12.28 22.7271 13.5 22.7271H22.7V17.8948Z" fill="url(#paint0_linear_34_154)"/>
<defs>
<linearGradient id="paint0_linear_34_154" x1="25" y1="0" x2="25" y2="50" gradientUnits="userSpaceOnUse">
<stop stop-color="#F4A027"/>
<stop offset="1" stop-color="#FF5B24"/>
</linearGradient>
</defs>
</svg>
