<svg width="25" height="19" viewBox="0 0 25 19" fill="none" xmlns="http://www.w3.org/2000/svg">
<g clip-path="url(#clip0_17_119)">
<path d="M23.8697 5.19969C23.7098 5.03304 23.5169 4.90265 23.3037 4.8171V0.844052C23.3037 0.620195 23.2161 0.405508 23.0601 0.247217C22.9041 0.0889268 22.6926 0 22.472 0C22.2523 0.00304563 22.0425 0.0929502 21.8872 0.250585C21.7319 0.40822 21.6433 0.621143 21.6403 0.844052V4.61462H21.3967C21.0069 3.28234 20.2035 2.11344 19.1062 1.28195C18.0089 0.450457 16.6763 0.000828277 15.3069 0H9.19504C7.8256 0.000828277 6.49304 0.450457 5.39574 1.28195C4.29844 2.11344 3.49507 3.28234 3.10523 4.61462H2.78392V0.844052C2.78392 0.620195 2.69629 0.405508 2.54032 0.247217C2.38435 0.0889268 2.1728 0 1.95222 0C1.73164 0 1.5201 0.0889268 1.36412 0.247217C1.20815 0.405508 1.12053 0.620195 1.12053 0.844052V4.82887C0.917679 4.91639 0.733064 5.04223 0.576504 5.19969C0.208397 5.57746 0.00134518 6.08693 1.3664e-06 6.61822V12.3818C-0.00030393 12.645 0.0505534 12.9057 0.149661 13.1489C0.248769 13.3921 0.39418 13.6131 0.577568 13.7992C0.760955 13.9853 0.978717 14.1329 1.21838 14.2335C1.45805 14.3341 1.71491 14.3857 1.97426 14.3854H3.08319C3.47303 15.7177 4.2764 16.8866 5.3737 17.7181C6.471 18.5495 7.80356 18.9992 9.173 19H15.1851C16.5545 18.9992 17.8871 18.5495 18.9844 17.7181C20.0817 16.8866 20.8851 15.7177 21.2749 14.3854H22.3827C22.642 14.3857 22.8989 14.3341 23.1385 14.2335C23.3782 14.1329 23.596 13.9853 23.7794 13.7992C23.9628 13.6131 24.1082 13.3921 24.2073 13.1489C24.3064 12.9057 24.3572 12.645 24.3569 12.3818V6.61822C24.3801 6.10025 24.205 5.5917 23.8697 5.19969ZM2.89527 12.6973H2.01834C1.93559 12.698 1.85594 12.6654 1.79679 12.6066C1.74223 12.5446 1.71101 12.4649 1.70863 12.3818V6.61822C1.70611 6.53782 1.73488 6.45964 1.78871 6.4006C1.84255 6.34156 1.91712 6.3064 1.9963 6.30273H2.89527C2.89022 6.35164 2.89022 6.40096 2.89527 6.44988V12.5501C2.89022 12.599 2.89022 12.6484 2.89527 12.6973ZM7.8866 8.89257V5.85304C7.87191 5.71924 7.8852 5.5838 7.9256 5.45557C7.966 5.32734 8.03261 5.2092 8.12106 5.10888C8.20951 5.00855 8.31783 4.92829 8.43893 4.87334C8.56003 4.81839 8.6912 4.78999 8.82385 4.78999C8.9565 4.78999 9.08767 4.81839 9.20877 4.87334C9.32987 4.92829 9.43818 5.00855 9.52664 5.10888C9.61509 5.2092 9.6817 5.32734 9.7221 5.45557C9.7625 5.5838 9.77579 5.71924 9.7611 5.85304V8.89257C9.77579 9.02636 9.7625 9.1618 9.7221 9.29003C9.6817 9.41826 9.61509 9.5364 9.52664 9.63672C9.43818 9.73705 9.32987 9.81731 9.20877 9.87226C9.08767 9.92721 8.9565 9.95561 8.82385 9.95561C8.6912 9.95561 8.56003 9.92721 8.43893 9.87226C8.31783 9.81731 8.20951 9.73705 8.12106 9.63672C8.03261 9.5364 7.966 9.41826 7.9256 9.29003C7.8852 9.1618 7.87191 9.02636 7.8866 8.89257ZM14.5413 14.5196H9.99425C9.7443 14.5196 9.50457 14.4188 9.32783 14.2394C9.15108 14.0601 9.05178 13.8168 9.05178 13.5631C9.05178 13.3094 9.15108 13.0661 9.32783 12.8868C9.50457 12.7074 9.7443 12.6066 9.99425 12.6066H14.5413C14.7914 12.6066 15.0313 12.7075 15.2082 12.8869C15.385 13.0664 15.4844 13.3099 15.4844 13.5637C15.4844 13.8175 15.385 14.061 15.2082 14.2404C15.0313 14.4199 14.7914 14.5196 14.5413 14.5196ZM16.6153 8.89374C16.6153 9.14757 16.516 9.391 16.3391 9.57049C16.1623 9.74997 15.9224 9.85081 15.6723 9.85081C15.4222 9.85081 15.1823 9.74997 15.0054 9.57049C14.8286 9.391 14.7292 9.14757 14.7292 8.89374V5.85304C14.7292 5.59921 14.8286 5.35577 15.0054 5.17629C15.1823 4.99681 15.4222 4.89597 15.6723 4.89597C15.9224 4.89597 16.1623 4.99681 16.3391 5.17629C16.516 5.35577 16.6153 5.59921 16.6153 5.85304V8.89374ZM22.8153 12.383C22.8153 12.4654 22.7829 12.5478 22.7272 12.6078C22.6978 12.637 22.6629 12.6601 22.6247 12.6756C22.5865 12.6912 22.5456 12.6989 22.5045 12.6985H21.6287C21.6337 12.6495 21.6337 12.6002 21.6287 12.5513V6.40632C21.6337 6.3574 21.6337 6.30809 21.6287 6.25917H22.5161C22.5555 6.25893 22.5945 6.26684 22.6308 6.28242C22.6671 6.29801 22.6999 6.32094 22.7272 6.34981C22.7829 6.41103 22.8142 6.49108 22.8153 6.57348V12.383Z" fill="url(#paint0_linear_17_119)"/>
</g>
<defs>
<linearGradient id="paint0_linear_17_119" x1="12.1795" y1="0" x2="12.1795" y2="19" gradientUnits="userSpaceOnUse">
<stop stop-color="#F4A027"/>
<stop offset="1" stop-color="#FF5B24"/>
</linearGradient>
<clipPath id="clip0_17_119">
<rect width="24.359" height="19" fill="white"/>
</clipPath>
</defs>
</svg>
