<svg width="30" height="30" viewBox="0 0 30 30" fill="none" xmlns="http://www.w3.org/2000/svg">
<g clip-path="url(#clip0_30_29)">
<path d="M15 0C16.344 0 17.646 0.177 18.885 0.5085L15.696 3.696C15.4541 3.9389 15.2407 4.20865 15.06 4.5H15C12.9233 4.5 10.8932 5.11581 9.16651 6.26957C7.4398 7.42332 6.09398 9.0632 5.29926 10.9818C4.50454 12.9004 4.29661 15.0116 4.70175 17.0484C5.1069 19.0852 6.10693 20.9562 7.57538 22.4246C9.04383 23.8931 10.9148 24.8931 12.9516 25.2982C14.9884 25.7034 17.0996 25.4955 19.0182 24.7007C20.9368 23.906 22.5767 22.5602 23.7304 20.8335C24.8842 19.1068 25.5 17.0767 25.5 15V14.94C25.79 14.76 26.0575 14.5475 26.3025 14.3025L29.4915 11.115C29.823 12.354 30 13.656 30 15C30 23.2845 23.2845 30 15 30C6.7155 30 0 23.2845 0 15C0 6.7155 6.7155 0 15 0ZM14.379 7.5255C14.379 8.802 14.316 10.0965 14.385 11.3715L13.575 12.1815C13.2964 12.4601 13.0753 12.7909 12.9245 13.155C12.7738 13.519 12.6961 13.9092 12.6961 14.3032C12.6961 14.6973 12.7738 15.0875 12.9245 15.4515C13.0753 15.8156 13.2964 16.1464 13.575 16.425C13.8536 16.7036 14.1844 16.9247 14.5485 17.0755C14.9125 17.2262 15.3027 17.3039 15.6968 17.3039C16.0908 17.3039 16.481 17.2262 16.845 17.0755C17.2091 16.9247 17.5399 16.7036 17.8185 16.425L18.6285 15.615C19.9035 15.684 21.1965 15.621 22.4745 15.621C22.356 17.0465 21.8323 18.4084 20.9652 19.5461C20.0981 20.6837 18.9238 21.5497 17.5807 22.0418C16.2376 22.534 14.7818 22.6318 13.3849 22.3237C11.9881 22.0156 10.7084 21.3145 9.69698 20.303C8.68551 19.2916 7.98439 18.0119 7.6763 16.6151C7.36821 15.2182 7.46601 13.7624 7.95816 12.4193C8.4503 11.0762 9.31627 9.90186 10.4539 9.03476C11.5916 8.16767 12.9535 7.64399 14.379 7.5255ZM24.756 0.1905C25.0298 0.304019 25.2638 0.496106 25.4285 0.742514C25.5933 0.988923 25.6813 1.27861 25.6815 1.575V4.32H28.425C28.7216 4.32006 29.0116 4.40807 29.2582 4.5729C29.5048 4.73772 29.697 4.97197 29.8105 5.24602C29.924 5.52007 29.9537 5.82162 29.8959 6.11255C29.838 6.40348 29.6952 6.67072 29.4855 6.8805L24.18 12.18C23.8988 12.4613 23.5173 12.6194 23.1195 12.6195H19.5L16.758 15.363C16.4765 15.6445 16.0948 15.8026 15.6968 15.8026C15.2987 15.8026 14.917 15.6445 14.6355 15.363C14.354 15.0815 14.1959 14.6998 14.1959 14.3018C14.1959 13.9037 14.354 13.522 14.6355 13.2405L17.379 10.5V6.879C17.3788 6.68178 17.4176 6.48647 17.493 6.30424C17.5684 6.122 17.679 5.95643 17.8185 5.817L23.121 0.5145C23.3308 0.304601 23.5981 0.161638 23.8891 0.103697C24.1802 0.0457566 24.4818 0.0754427 24.756 0.189" fill="url(#paint0_linear_30_29)"/>
</g>
<defs>
<linearGradient id="paint0_linear_30_29" x1="15" y1="0" x2="15" y2="30" gradientUnits="userSpaceOnUse">
<stop stop-color="#F4A027"/>
<stop offset="1" stop-color="#FF5B24"/>
</linearGradient>
<clipPath id="clip0_30_29">
<rect width="30" height="30" fill="white"/>
</clipPath>
</defs>
</svg>
