<svg width="30" height="30" viewBox="0 0 30 30" fill="none" xmlns="http://www.w3.org/2000/svg">
<path d="M8.7832 1.59375L2.00684 3.32461V7.82227L9.24609 5.49902L11.9824 2.88164L8.7832 1.59375ZM16.5645 4.93359C16.1309 4.94414 15.9727 5.04375 16.6172 5.35137C20.3262 7.125 25.8809 12.1172 22.9277 12.709C13.6055 14.5898 7.64062 17.127 2.84238 22.8984C1.48945 24.5273 1.05469 28.9922 1.05469 28.9922H26.4023C26.4023 28.9922 18.2578 27.7559 17.7422 24.5566C16.8691 19.1543 29.1387 18.5391 29.2559 12.8438C29.3086 10.3125 24.082 5.52012 18.4512 5.07891C18.123 5.05312 17.1211 4.92012 16.5645 4.93359ZM6.98437 7.33008L5.06895 7.94531V15.1055L7.17773 14.5195L6.98437 7.33008Z" fill="url(#paint0_linear_30_21)"/>
<defs>
<linearGradient id="paint0_linear_30_21" x1="15.1555" y1="1.59375" x2="15.1555" y2="28.9922" gradientUnits="userSpaceOnUse">
<stop stop-color="#F4A027"/>
<stop offset="1" stop-color="#FF5B24"/>
</linearGradient>
</defs>
</svg>
