<svg width="30" height="30" viewBox="0 0 30 30" fill="none" xmlns="http://www.w3.org/2000/svg">
<g clip-path="url(#clip0_30_33)">
<path d="M13.3221 9.63234V15.798C13.3221 16.3844 13.639 16.9373 14.1393 17.2389L19.3428 20.3384C19.9432 20.6903 20.7104 20.4892 21.0606 19.9028C21.4109 19.2997 21.2274 18.5289 20.627 18.1771L15.8404 15.3121V9.61559C15.8238 8.94541 15.2567 8.37576 14.5729 8.37576C13.8891 8.37576 13.3221 8.94541 13.3221 9.63234ZM30 10.8889V2.02583C30 1.27188 29.0994 0.903284 28.5824 1.43943L25.6137 4.42172C24.0514 2.85219 22.1638 1.64806 20.0854 0.895114C18.0069 0.142167 15.7888 -0.141075 13.5889 0.0655624C6.60087 0.702231 0.846985 6.34847 0.0798006 13.3686C-0.325737 17.3048 0.825276 21.2435 3.28453 24.3348C5.74378 27.4262 9.31416 29.4224 13.2254 29.893C17.1367 30.3635 21.0753 29.2706 24.1916 26.85C27.3079 24.4294 29.3521 20.8752 29.8833 16.954C30 15.9488 29.2161 15.0775 28.2155 15.0775C27.3816 15.0775 26.6811 15.6974 26.581 16.5184C25.8639 22.3657 20.8438 26.8894 14.8231 26.8056C8.63558 26.7219 3.41539 21.4777 3.31532 15.2451C3.21525 8.71085 8.50215 3.34943 14.9899 3.34943C18.2087 3.34943 21.1273 4.67303 23.2454 6.78409L19.7598 10.2858C19.2261 10.8219 19.593 11.7266 20.3435 11.7266H29.1661C29.6331 11.7266 30 11.3581 30 10.8889Z" fill="url(#paint0_linear_30_33)"/>
</g>
<defs>
<linearGradient id="paint0_linear_30_33" x1="15" y1="0" x2="15" y2="30" gradientUnits="userSpaceOnUse">
<stop stop-color="#F4A027"/>
<stop offset="1" stop-color="#FF5B24"/>
</linearGradient>
<clipPath id="clip0_30_33">
<rect width="30" height="30" fill="white"/>
</clipPath>
</defs>
</svg>
